<svg width="29" height="29" viewBox="0 0 29 29" fill="none" xmlns="http://www.w3.org/2000/svg">
<path fill-rule="evenodd" clip-rule="evenodd" d="M0 6C0 2.68629 2.68629 0 6 0H23C26.3137 0 29 2.68629 29 6V23C29 26.3137 26.3137 29 23 29H6C2.68629 29 0 26.3137 0 23V6Z" fill="url(#paint0_linear)"/>
<path d="M23.2524 12.0195C23.2553 12.0718 23.2515 12.125 23.2384 12.1778L22.0664 16.8656C22.0073 17.1018 21.7956 17.2679 21.5523 17.2692L14.5205 17.3047C14.5196 17.3047 14.5188 17.3047 14.5178 17.3047H7.48598C7.24136 17.3047 7.02821 17.138 6.96911 16.9007L5.79715 12.1951C5.78365 12.1408 5.77975 12.0861 5.78316 12.0325C5.32978 11.8896 5 11.4654 5 10.9654C5 10.3485 5.50181 9.84673 6.11869 9.84673C6.73557 9.84673 7.23738 10.3485 7.23738 10.9654C7.23738 11.3128 7.07821 11.6236 6.82897 11.829L8.29627 13.3074C8.66711 13.681 9.1817 13.8953 9.70816 13.8953C10.3307 13.8953 10.9242 13.5996 11.2979 13.1044L13.7093 9.90923C13.5067 9.7068 13.3813 9.4271 13.3813 9.11869C13.3813 8.50181 13.8831 8 14.5 8C15.1169 8 15.6187 8.50181 15.6187 9.11869C15.6187 9.41786 15.4999 9.6894 15.3079 9.89034C15.3086 9.89119 15.3094 9.8919 15.31 9.89283L17.7039 13.0968C18.0775 13.5968 18.6732 13.8953 19.2974 13.8953C19.8287 13.8953 20.3283 13.6884 20.704 13.3127L22.1805 11.8362C21.9261 11.6309 21.7626 11.3171 21.7626 10.9654C21.7626 10.3485 22.2644 9.84673 22.8813 9.84673C23.4982 9.84673 24 10.3485 24 10.9654C24 11.452 23.6871 11.8659 23.2524 12.0195ZM21.952 18.9738C21.952 18.6796 21.7135 18.4411 21.4193 18.4411H7.6399C7.3457 18.4411 7.10719 18.6796 7.10719 18.9738V20.2523C7.10719 20.5465 7.3457 20.785 7.6399 20.785H21.4193C21.7135 20.785 21.952 20.5465 21.952 20.2523V18.9738Z" fill="white"/>
<defs>
<linearGradient id="paint0_linear" x1="14.5" y1="0" x2="14.5" y2="29" gradientUnits="userSpaceOnUse">
<stop stop-color="#FF5467"/>
<stop offset="1" stop-color="#FF2C2C"/>
</linearGradient>
</defs>
</svg>
