<svg width="16" height="15" viewBox="0 0 16 15" fill="none" xmlns="http://www.w3.org/2000/svg">
<path fill-rule="evenodd" clip-rule="evenodd" d="M4.65476 10.6914C4.65476 10.6914 11.1914 16.4653 14.8753 14.6451C14.8753 14.6451 15.8934 13.838 15.9921 13.045C16.0907 12.2521 15.2448 11.7202 14.9179 11.5395C14.1354 11.1048 13.3304 10.6998 12.5319 10.2874C12.2795 10.1567 12.0059 10.0094 11.7078 10.0817C11.5353 10.1243 11.3575 10.1706 11.1999 10.2429C10.6377 10.4987 10.1767 10.7397 9.56768 10.9797C9.56768 10.9797 8.94606 10.8038 6.62709 8.76028C4.16332 6.58884 4.49628 5.78145 4.49628 5.78145C4.81676 5.38572 5.1085 4.97145 5.35125 4.53494C5.4556 4.3468 5.59933 4.16515 5.66002 3.96033C5.72178 3.75459 5.59507 3.60723 5.4886 3.42651C5.25223 3.02243 4.99989 2.62577 4.73797 2.23375C4.28653 1.55627 3.8255 0.850067 3.24949 0.244881C3.1888 0.181861 3.04719 -0.00720217 2.93113 0.000212055C1.65027 0.0752811 0.388572 1.19019 0.388572 1.19019C-1.59394 4.34495 4.65476 10.6914 4.65476 10.6914Z" fill="#4F4F4F"/>
</svg>
