<svg width="16" height="16" viewBox="0 0 16 16" fill="none" xmlns="http://www.w3.org/2000/svg">
<g clip-path="url(#clip0)">
<path d="M15.3614 4.88441C14.5178 2.91774 13.0843 1.48744 11.1013 0.641662C10.1101 0.218943 9.07169 0.00302124 7.98685 0.00302124C6.9022 0.00302124 5.87145 0.216904 4.88139 0.641662C2.91472 1.48519 1.4749 2.91458 0.629856 4.88441C0.206405 5.87128 0 6.90519 0 7.98984C0 9.07471 0.206405 10.1172 0.629856 11.1043C1.4749 13.0741 2.9149 14.5121 4.88139 15.3558C5.87163 15.7806 6.90217 15.9942 7.98685 15.9942C9.07153 15.9942 10.1101 15.7783 11.1011 15.3558C13.0842 14.51 14.5176 13.0708 15.3614 11.1043C15.7861 10.114 16 9.07471 16 7.98984C16 6.90519 15.7863 5.87463 15.3614 4.88441ZM14.0843 11.5242C13.4563 12.6012 12.5959 13.4556 11.5124 14.0873C10.4354 14.7153 9.25535 15.032 7.98703 15.032C7.03357 15.032 6.12376 14.8484 5.25762 14.4721C4.3915 14.0961 3.64369 13.6017 3.01812 12.9763C2.39255 12.3508 1.89464 11.5956 1.52233 10.728C1.15111 9.8636 0.971216 8.94352 0.971216 7.98987C0.971216 6.72137 1.28288 5.54731 1.90735 4.4733C2.53404 3.39536 3.39456 2.54004 4.47046 1.91016C5.54617 1.2803 6.71856 0.96527 7.98685 0.96527C9.25535 0.96527 10.4352 1.28216 11.5122 1.91016C12.5958 2.5419 13.4542 3.39719 14.0841 4.47327C14.714 5.54917 15.0288 6.72137 15.0288 7.98984C15.0288 9.25837 14.716 10.4404 14.0843 11.5242Z" fill="#8B8B8B"/>
<path d="M8.49395 7.92126V3.38978C8.49395 3.11862 8.25768 2.8999 7.9865 2.8999C7.73287 2.8999 7.50537 3.11862 7.50537 3.38978V7.99122C7.50537 8.00001 7.52291 8.03509 7.52291 8.06124C7.50537 8.21873 7.54924 8.34994 7.65413 8.45501L10.2699 11.0706C10.4449 11.2456 10.7685 11.2456 10.9434 11.0706C11.1446 10.8694 11.1314 10.5775 10.9434 10.3883L8.49395 7.92126Z" fill="#8B8B8B"/>
</g>
<defs>
<clipPath id="clip0">
<rect width="16" height="16" fill="white"/>
</clipPath>
</defs>
</svg>
