<svg width="16" height="16" viewBox="0 0 16 16" fill="none" xmlns="http://www.w3.org/2000/svg">
<path d="M8.22791 15.775C8.19979 15.775 8.17479 15.7719 8.14666 15.7688C7.94354 15.7344 7.78104 15.5656 7.75604 15.3594L7.00291 9.12501L0.396662 8.01876C0.190412 7.98439 0.0310369 7.82189 0.00291193 7.61251C-0.0252131 7.40314 0.0841619 7.20626 0.274787 7.11876L15.2873 0.228137C15.3498 0.200012 15.4154 0.184387 15.4842 0.184387C15.6123 0.184387 15.7373 0.237512 15.8248 0.328137C15.9654 0.471887 15.9998 0.690637 15.9092 0.868762L8.65291 15.5125C8.57479 15.6719 8.40604 15.775 8.22791 15.775ZM7.50916 8.24689C7.71541 8.28126 7.87791 8.45001 7.90291 8.65939L8.50916 13.6656L14.4623 1.65314L2.07791 7.33439L7.50916 8.24689Z" fill="#8B8B8B"/>
</svg>
