<svg width="25" height="25" viewBox="0 0 25 25" fill="none" xmlns="http://www.w3.org/2000/svg">
<path d="M12.5002 13.3826C11.8384 13.3826 11.3018 13.919 11.3018 14.581C11.3018 15.0248 11.5437 15.4113 11.9023 15.6186V16.9509H13.098V15.6186C13.4566 15.4114 13.6986 15.0248 13.6986 14.581C13.6986 13.919 13.162 13.3826 12.5002 13.3826Z" fill="black"/>
<path d="M12.5005 7.57143C11.4931 7.57143 10.6738 8.39083 10.6738 9.39808V11.3434H14.327V9.39808C14.3269 8.39099 13.5076 7.57143 12.5005 7.57143Z" fill="black"/>
<path d="M12.4998 0.976608C6.13522 0.976608 0.975586 6.13639 0.975586 12.501C0.975586 18.8654 6.13522 24.0253 12.4998 24.0253C18.8643 24.0253 24.0244 18.8653 24.0244 12.501C24.0244 6.13639 18.8643 0.976608 12.4998 0.976608ZM16.0409 18.4261H8.9592C8.21133 18.4261 7.60499 17.8198 7.60499 17.0717V12.6986C7.60499 12.0462 8.06651 11.5014 8.68085 11.3732V9.39893C8.68085 7.29308 10.3942 5.5796 12.5002 5.5796C14.606 5.5796 16.3193 7.29292 16.3193 9.39893V11.3732C16.9334 11.5018 17.395 12.0462 17.395 12.6986V17.0717H17.3951C17.3951 17.8197 16.7888 18.4261 16.0409 18.4261Z" fill="black"/>
</svg>
