<svg width="28" height="28" viewBox="0 0 28 28" fill="none" xmlns="http://www.w3.org/2000/svg">
<path d="M14 0.199997C6.38559 0.199997 0.200012 6.38557 0.200012 14C0.200012 21.6144 6.38559 27.8 14 27.8C21.6144 27.8 27.8 21.6144 27.8 14C27.8 6.38557 21.6144 0.199997 14 0.199997ZM14 1.4C20.9659 1.4 26.6 7.0341 26.6 14C26.6 20.9659 20.9659 26.6 14 26.6C7.03412 26.6 1.40001 20.9659 1.40001 14C1.40001 7.0341 7.03412 1.4 14 1.4ZM13.4 6.8V13.4H6.80001V14.6H13.4V21.2H14.6V14.6H21.2V13.4H14.6V6.8H13.4Z" fill="#EF5668"/>
</svg>
