<svg width="13" height="13" viewBox="0 0 13 13" fill="none" xmlns="http://www.w3.org/2000/svg">
<path d="M12.4811 3.96918C11.7957 2.37126 10.631 1.20914 9.01977 0.521947C8.21445 0.178488 7.37075 0.00305176 6.48932 0.00305176C5.60803 0.00305176 4.77055 0.176831 3.96613 0.521947C2.36821 1.20731 1.19836 2.36869 0.511758 3.96918C0.167704 4.77101 0 5.61106 0 6.49235C0 7.3738 0.167704 8.22081 0.511758 9.02282C1.19836 10.6233 2.36836 11.7916 3.96613 12.4772C4.7707 12.8223 5.60801 12.9959 6.48932 12.9959C7.37062 12.9959 8.21445 12.8205 9.01964 12.4772C10.6309 11.79 11.7956 10.6206 12.4811 9.02282C12.8262 8.21824 13 7.3738 13 6.49235C13 5.61106 12.8264 4.77373 12.4811 3.96918Z" fill="#8B8B8B"/>
<path d="M6.90161 6.43606V2.75423C6.90161 2.53391 6.70964 2.3562 6.4893 2.3562C6.28324 2.3562 6.09839 2.53391 6.09839 2.75423V6.4929C6.09839 6.50004 6.11264 6.52854 6.11264 6.54979C6.09839 6.67775 6.13403 6.78436 6.21925 6.86973L8.34456 8.99489C8.48678 9.1371 8.74971 9.1371 8.89182 8.99489C9.05525 8.83144 9.0445 8.59427 8.89182 8.4405L6.90161 6.43606Z" fill="white"/>
</svg>
