<?xml version="1.0" encoding="utf-8"?>
<!-- Generator: Adobe Illustrator 19.2.0, SVG Export Plug-In . SVG Version: 6.00 Build 0)  -->
<svg version="1.1" id="Capa_1" xmlns="http://www.w3.org/2000/svg" xmlns:xlink="http://www.w3.org/1999/xlink" x="0px" y="0px"
	 width="974.5px" height="974.5px" viewBox="0 0 974.5 974.5" style="enable-background:new 0 0 974.5 974.5;" xml:space="preserve"
	>
<style type="text/css">
	.st0{fill:#888888;}
</style>
<g>
	<path class="st0" d="M284.2,974.5h624.5c33.3,0,60.2-27,60.2-60.2v-526c0-24.9-20.1-45-45-45H663.4c-24.9,0-45-20.1-45-45V45.1
		c0-24.9-20.1-45-45-45H284.2c-33.3,0-60.2,27-60.2,60.2v77.2l404.1,401.3c10.6,10.6,18.7,23.7,23.4,37.9l47.7,145.7
		c4,12.2,4.9,25.2,2.7,37.8c-2,11.6-6.8,22.9-13.8,32.5c-14.8,20.4-38.5,32.6-63.5,32.6c-6.4,0-12.9-0.8-19.1-2.4l-154.9-39
		c-16.6-4.2-31.9-12.8-44-24.8L223.9,577.7v336.5C223.9,947.5,250.9,974.5,284.2,974.5z"/>
	<path class="st0" d="M949,274.7c17.8,0,26.7-21.5,14.1-34.1L728.5,5.9C715.9-6.7,694.4,2.2,694.4,20v234.6c0,11.1,9,20.1,20.1,20.1
		L949,274.7L949,274.7z"/>
	<path class="st0" d="M120.8,140.1c-12.7,0-25.5,4.2-33.9,12.6l-68.8,68.8c-16.6,16.6-16.9,50.3-0.6,66.6l60,59.6l136-136l-60-59.6
		C145.4,144.1,133.2,140.1,120.8,140.1z"/>
	<polygon class="st0" points="417.8,685.7 553.8,549.7 256.1,254 223.9,286.2 120.1,390 223.9,493.2 	"/>
	<path class="st0" d="M620.2,764.8c1.5,0.4,3,0.6,4.5,0.6c12,0,21.5-12,17.6-24.2l-47.8-145.7c-0.1-0.4-0.3-0.8-0.4-1.1L463.2,725.2
		c0.7,0.2,1.4,0.4,2,0.6L620.2,764.8z"/>
</g>
</svg>
