<svg width="13" height="13" viewBox="0 0 13 13" fill="none" xmlns="http://www.w3.org/2000/svg">
<g clip-path="url(#clip0)">
<path d="M6.68539 12.8172C6.66254 12.8172 6.64223 12.8147 6.61938 12.8121C6.45434 12.7842 6.32231 12.6471 6.30199 12.4795L5.69008 7.4141L0.322501 6.51527C0.154923 6.48734 0.0254311 6.35531 0.00257957 6.18519C-0.020272 6.01508 0.0685952 5.85511 0.223478 5.78402L12.4211 0.185388C12.4719 0.162537 12.5252 0.149841 12.5811 0.149841C12.6852 0.149841 12.7868 0.193005 12.8579 0.266638C12.9721 0.383435 13 0.561169 12.9264 0.705896L7.0307 12.6039C6.96723 12.7334 6.83012 12.8172 6.68539 12.8172Z" fill="#8B8B8B"/>
</g>
<defs>
<clipPath id="clip0">
<rect width="13" height="13" fill="white"/>
</clipPath>
</defs>
</svg>
