<svg id="Layer_1" data-name="Layer 1" xmlns="http://www.w3.org/2000/svg" viewBox="0 0 322.41 322.41"><defs><style>.cls-1{fill:#f2765a;}.cls-2{fill:#6d5af1;}.cls-3{fill:#5b9df1;}.cls-4{fill:#5be5f0;}.cls-5{fill:#5ef15a;}.cls-6{fill:#baf05a;}.cls-7{fill:#f1dd5a;}.cls-8{fill:#f0b35a;}</style></defs><title>Moments-01</title><path class="cls-1" d="M216.38,119L106.05,9.92S128,0,161.21,0s55.16,8.64,55.16,8.64V119h0Z"/><path class="cls-2" d="M230.08,170.35L229.19,15.21s22.53,8.54,46,32,32.9,45.12,32.9,45.12l-78,78h0v0Z"/><path class="cls-3" d="M203.45,216.38L312.51,106s9.9,22,9.9,55.16-8.64,55.16-8.64,55.16H203.45Z"/><path class="cls-4" d="M152.07,230.08l155.14-.89s-8.54,22.53-32,46-45.12,32.9-45.12,32.9l-78-78h0Z"/><path class="cls-5" d="M106.05,203.45L216.38,312.51s-22,9.9-55.16,9.9-55.16-8.64-55.16-8.64V203.44h0Z"/><path class="cls-6" d="M92.33,152.07l0.9,155.14s-22.53-8.54-46-32-32.9-45.12-32.9-45.12l78-78h0v0Z"/><path class="cls-7" d="M119,106L9.92,216.38S0,194.41,0,161.21,8.64,106,8.64,106H119Z"/><path class="cls-8" d="M170.35,92.33l-155.14.9s8.54-22.53,32-46,45.12-32.9,45.12-32.9l78,78h0Z"/></svg>