<?xml version="1.0" encoding="utf-8"?>
<!-- Generator: Adobe Illustrator 19.2.0, SVG Export Plug-In . SVG Version: 6.00 Build 0)  -->
<svg version="1.1" id="Capa_1" xmlns="http://www.w3.org/2000/svg" xmlns:xlink="http://www.w3.org/1999/xlink" x="0px" y="0px"
	 width="984.6px" height="984.6px" viewBox="0 0 984.6 984.6" style="enable-background:new 0 0 984.6 984.6;" xml:space="preserve"
	>
<style type="text/css">
	.st0{fill:#888888;}
</style>
<g>
	<path class="st0" d="M984.6,580.1c0-46.9-38.1-85-85-85c-46.9,0-85,38.1-85,85v232.6c0,0.6-0.5,1.1-1.1,1.1H171.1
		c-0.6,0-1.1-0.5-1.1-1.1V580.1c0-46.9-38.1-85-85-85s-85,38.1-85,85v232.6C0.1,907,76.8,983.8,171.1,983.8h642.4
		c94.3,0,171.1-76.7,171.1-171.1V580.1L984.6,580.1z"/>
	<path class="st0" d="M729.7,25.6c-33.2-33.2-87-33.2-120.2,0s-33.2,87,0,120.2l46.2,46.2H547.5c-39.9,0-78.6,7.9-115.3,23.4
		c-35.2,15-66.8,36.3-94,63.5c-27.2,27.2-48.5,58.8-63.5,94c-15.5,36.6-23.4,75.4-23.4,115.2v107.1c0,46.9,38.1,85,85,85
		s85-38.1,85-85v-107c0-33.5,13.2-65.1,37.2-89.1s55.6-37.2,89.1-37.2h106.9l-44.9,44.9c-33.2,33.2-33.2,87,0,120.2
		c16.6,16.6,38.4,24.9,60.1,24.9c21.7,0,43.5-8.3,60.1-24.9l190.7-190.7c33.2-33.2,33.2-87,0-120.2L729.7,25.6z"/>
</g>
</svg>
