<svg id="Layer_1" data-name="Layer 1" xmlns="http://www.w3.org/2000/svg" viewBox="0 0 29 26"><defs><style>.cls-1{fill:#09bb07;}</style></defs><title>Chat</title><path class="cls-1" d="M10.88,0C4.87,0,0,4.06,0,9.06a8.58,8.58,0,0,0,4.15,7.1L2.72,19l3.91-1.67A12.34,12.34,0,0,0,9.26,18a7.59,7.59,0,0,1-.2-1.7c0-5,4.88-9.06,10.88-9.06a13.15,13.15,0,0,1,1.61.11C20.6,3.17,16.18,0,10.88,0Z"/><path class="cls-1" d="M29,16.31c0-4-4.06-7.25-9.06-7.25s-9.06,3.25-9.06,7.25,4.06,7.25,9.06,7.25a11.07,11.07,0,0,0,2.37-.28l4.88,2.09L25.5,22A6.83,6.83,0,0,0,29,16.31Z"/></svg>