<svg width="29" height="29" viewBox="0 0 29 29" fill="none" xmlns="http://www.w3.org/2000/svg">
<mask id="mask0" mask-type="alpha" maskUnits="userSpaceOnUse" x="0" y="0" width="29" height="29">
<rect width="29" height="29" rx="7" fill="white"/>
</mask>
<g mask="url(#mask0)">
<rect width="29" height="29" rx="7" fill="#00DD52"/>
<path opacity="0.01" fill-rule="evenodd" clip-rule="evenodd" d="M0 0H29V29H0V0Z" fill="#00DD52"/>
</g>
<g clip-path="url(#clip0)">
<path fill-rule="evenodd" clip-rule="evenodd" d="M24.524 15.6596L24.2055 15.225C23.8613 14.7517 23.8527 14.1106 24.1926 13.6286L24.5024 13.1897C24.9758 12.5184 24.7563 11.5847 24.0291 11.1931L23.5558 10.9392C23.0394 10.6638 22.7554 10.0872 22.8544 9.5063L22.9447 8.97702C23.0824 8.16805 22.4757 7.41932 21.6538 7.3849L21.1159 7.36338C20.5307 7.33757 20.023 6.94169 19.8595 6.37799L19.7089 5.86162C19.4808 5.06986 18.6116 4.66107 17.8542 4.98811L17.3594 5.19895C16.8215 5.43132 16.1933 5.29362 15.8017 4.85471L15.4445 4.45453C14.8981 3.8435 13.9385 3.8478 13.3963 4.47174L13.0434 4.87623C12.6562 5.31944 12.0322 5.46574 11.49 5.24199L10.9909 5.03544C10.2293 4.72132 9.36865 5.14732 9.14919 5.93908L9.00719 6.45975C8.85228 7.02775 8.35313 7.43223 7.76792 7.46235L7.23004 7.49248C6.40816 7.53981 5.81434 8.29714 5.96494 9.10612L6.06391 9.63539C6.17149 10.212 5.89609 10.7929 5.38403 11.0769L4.915 11.3394C4.19639 11.7396 3.98985 12.6776 4.47609 13.3403L4.79452 13.7749C5.13876 14.2482 5.14736 14.8894 4.80742 15.3713L4.49761 15.8103C4.02427 16.4815 4.24373 17.4153 4.97094 17.8069L5.44427 18.0607C5.96064 18.3361 6.24464 18.9127 6.14567 19.4937L6.05531 20.0229C5.91761 20.8319 6.52434 21.5806 7.34622 21.6151L7.8841 21.6366C8.46931 21.6624 8.97707 22.0583 9.14059 22.622L9.29119 23.1383C9.51925 23.9301 10.3885 24.3389 11.1458 24.0118L11.6407 23.801C12.1785 23.5686 12.8068 23.7063 13.1984 24.1452L13.5555 24.5454C14.1063 25.1565 15.0659 25.1522 15.6038 24.5282L15.9566 24.1237C16.3439 23.6805 16.9678 23.5342 17.51 23.758L18.0092 23.9645C18.7708 24.2786 19.6314 23.8526 19.8509 23.0609L19.9929 22.5402C20.1478 21.9722 20.6469 21.5677 21.2321 21.5376L21.77 21.5075C22.5919 21.4601 23.1857 20.7028 23.0351 19.8938L22.9361 19.3646C22.8286 18.788 23.104 18.207 23.616 17.923L24.085 17.6606C24.8037 17.2647 25.0102 16.3266 24.524 15.6596ZM13.3179 12.7563H10.8569C10.8569 10.6104 12.5488 9.14551 15.0171 9.14551C17.4634 9.14551 18.9209 10.4712 18.9209 12.2803C18.9209 13.5327 18.3643 14.3604 16.6797 15.8838L14.5996 17.7661V17.9053H19.0454V20H11.0107V18.2056L14.79 14.7852C16.0938 13.5913 16.3135 13.1372 16.3135 12.5146C16.3135 11.7822 15.8008 11.1743 14.8779 11.1743C13.8965 11.1743 13.3179 11.8408 13.3179 12.7563Z" fill="white"/>
</g>
<defs>
<clipPath id="clip0">
<rect width="21" height="21" fill="white" transform="translate(4 4)"/>
</clipPath>
</defs>
</svg>
