<?xml version="1.0" encoding="UTF-8"?>
<svg width="187px" height="46px" viewBox="0 0 187 46" version="1.1" xmlns="http://www.w3.org/2000/svg" xmlns:xlink="http://www.w3.org/1999/xlink">
    <!-- Generator: Sketch 50 (54983) - http://www.bohemiancoding.com/sketch -->
    <title>02-afl logo cmyk-russ</title>
    <desc>Created with Sketch.</desc>
    <defs>
        <linearGradient x1="23.8017872%" y1="-8.12785388%" x2="65.7595451%" y2="84.9315068%" id="linearGradient-1">
            <stop stop-color="#C00D0D" offset="0%"></stop>
            <stop stop-color="#E30613" offset="30%"></stop>
            <stop stop-color="#E51925" offset="33%"></stop>
            <stop stop-color="#EA4A53" offset="40%"></stop>
            <stop stop-color="#F3979D" offset="50%"></stop>
            <stop stop-color="#F6B2B6" offset="53%"></stop>
            <stop stop-color="#F5ACB0" offset="53%"></stop>
            <stop stop-color="#F07A81" offset="57%"></stop>
            <stop stop-color="#EB5059" offset="61%"></stop>
            <stop stop-color="#E8303B" offset="65%"></stop>
            <stop stop-color="#E51925" offset="68%"></stop>
            <stop stop-color="#E40B18" offset="72%"></stop>
            <stop stop-color="#E30613" offset="75%"></stop>
            <stop stop-color="#C00D0D" offset="100%"></stop>
        </linearGradient>
        <linearGradient x1="-0.946112711%" y1="-5.0982801%" x2="101.686549%" y2="106.265356%" id="linearGradient-2">
            <stop stop-color="#FFFFFF" offset="0%"></stop>
            <stop stop-color="#FFFFFF" offset="34%"></stop>
            <stop stop-color="#FFFFFF" offset="54%"></stop>
            <stop stop-color="#D3DAF0" offset="91%"></stop>
            <stop stop-color="#D3DAF0" offset="100%"></stop>
        </linearGradient>
        <linearGradient x1="22.5472547%" y1="4.11271896%" x2="84.7434743%" y2="107.996954%" id="linearGradient-3">
            <stop stop-color="#004A93" offset="0%"></stop>
            <stop stop-color="#004A93" offset="13%"></stop>
            <stop stop-color="#215EA2" offset="20%"></stop>
            <stop stop-color="#5980BB" offset="32%"></stop>
            <stop stop-color="#7C95CA" offset="41%"></stop>
            <stop stop-color="#899DD0" offset="46%"></stop>
            <stop stop-color="#7490C7" offset="48%"></stop>
            <stop stop-color="#366BAB" offset="56%"></stop>
            <stop stop-color="#0F539A" offset="61%"></stop>
            <stop stop-color="#004A93" offset="64%"></stop>
            <stop stop-color="#004A93" offset="92%"></stop>
        </linearGradient>
        <linearGradient x1="-3.20060325%" y1="-11.0377695%" x2="110.177574%" y2="86.053227%" id="linearGradient-4">
            <stop stop-color="#C00D0D" offset="0%"></stop>
            <stop stop-color="#E30613" offset="47%"></stop>
            <stop stop-color="#F6B2B6" offset="100%"></stop>
        </linearGradient>
        <linearGradient x1="8.37493067%" y1="-15.1991614%" x2="94.4536883%" y2="120.020964%" id="linearGradient-5">
            <stop stop-color="#D3DDF2" offset="0%"></stop>
            <stop stop-color="#D3DDF2" offset="7%"></stop>
            <stop stop-color="#BBCCE7" offset="12%"></stop>
            <stop stop-color="#7DA1CB" offset="21%"></stop>
            <stop stop-color="#1A5C9F" offset="34%"></stop>
            <stop stop-color="#004A93" offset="37%"></stop>
            <stop stop-color="#085097" offset="43%"></stop>
            <stop stop-color="#1E5FA1" offset="52%"></stop>
            <stop stop-color="#4379B1" offset="63%"></stop>
            <stop stop-color="#759CC8" offset="75%"></stop>
            <stop stop-color="#B5C8E5" offset="89%"></stop>
            <stop stop-color="#D3DDF2" offset="95%"></stop>
            <stop stop-color="#D3DDF2" offset="100%"></stop>
        </linearGradient>
        <linearGradient x1="11.160221%" y1="-10.2145046%" x2="92.3756906%" y2="114.606742%" id="linearGradient-6">
            <stop stop-color="#FFFFFF" offset="0%"></stop>
            <stop stop-color="#FFFFFF" offset="17%"></stop>
            <stop stop-color="#F9FAFD" offset="24%"></stop>
            <stop stop-color="#E8EBF8" offset="33%"></stop>
            <stop stop-color="#E3E7F6" offset="35%"></stop>
            <stop stop-color="#EDEFF9" offset="43%"></stop>
            <stop stop-color="#FAFBFE" offset="57%"></stop>
            <stop stop-color="#FFFFFF" offset="70%"></stop>
            <stop stop-color="#FFFFFF" offset="100%"></stop>
        </linearGradient>
        <linearGradient x1="11.6704805%" y1="-17.3703257%" x2="86.5560641%" y2="113.992762%" id="linearGradient-7">
            <stop stop-color="#F6B2B6" offset="0%"></stop>
            <stop stop-color="#F6B2B6" offset="6%"></stop>
            <stop stop-color="#F07D83" offset="11%"></stop>
            <stop stop-color="#EA4A53" offset="16%"></stop>
            <stop stop-color="#E62530" offset="21%"></stop>
            <stop stop-color="#E40E1B" offset="25%"></stop>
            <stop stop-color="#E30613" offset="28%"></stop>
            <stop stop-color="#CD0A0F" offset="41%"></stop>
            <stop stop-color="#C00D0D" offset="52%"></stop>
            <stop stop-color="#CD0A0F" offset="59%"></stop>
            <stop stop-color="#E30613" offset="69%"></stop>
            <stop stop-color="#F5A8A7" offset="89%"></stop>
            <stop stop-color="#F6B2B6" offset="100%"></stop>
        </linearGradient>
    </defs>
    <g id="Symbols" stroke="none" stroke-width="1" fill="none" fill-rule="evenodd">
        <g id="logo_white" transform="translate(-4.000000, -1.000000)">
            <g id="02-afl-logo-cmyk-russ" transform="translate(4.000000, 1.000000)">
                <path d="M121.52,25.81 C129.96,19.36 134.44,16.81 144.44,16.69 L142.31,19.78 C142.011993,20.4220243 141.289138,20.749435 140.61,20.55 C133.44,20.48 128.48,21.04 119.82,27.64 L121.52,25.81 Z" id="Shape" fill="url(#linearGradient-1)"></path>
                <path d="M121.95,25.28 C121.95,25.28 121.95,25.28 121.95,25.28 C130.19,17.45 137.2,13.91 143.26,13.15 C143.83,12.45 145.7,9.85 146.26,9 C132.58,11.41 126.29,20.85 121.95,25.28 Z" id="Shape" fill="url(#linearGradient-2)"></path>
                <path d="M121.95,25.32 C121.84,25.43 121.56,25.77 121.3,26.02 C121.22,26.1 121.07,26.29 121.06,26.3 C123.517824,24.2533234 126.128793,22.3978974 128.87,20.75 C132.479836,18.7492146 136.442634,17.4656348 140.54,16.97 C141.51705,15.7505169 142.43156,14.4822179 143.28,13.17 C133.84,14.57 127.63,20.1 121.95,25.32 Z" id="Shape" fill="url(#linearGradient-3)"></path>
                <path d="M142.1,20.1 C142.17,19.75 142.39,19.46 141.39,18.84 C140.11,18.06 139.69,18.41 139.97,17.64 C140.25,16.87 142.81,15.89 144.8,16.64 C143.830124,17.7370616 142.928432,18.8925633 142.1,20.1 Z" id="Shape" fill="url(#linearGradient-4)"></path>
                <path d="M149.55,8.1 C147.55,8.31 146.36,8.87 145.55,9.86 L142.95,13.7 C143.58,13.14 145.32,12.83 147.24,12.83 L147.73,12.83 C148.02,12.83 148.3,12.76 148.58,12.76 C151.35,12.69 155.11,12.27 157.39,9.54 L160.62,4.69 L160.98,4.16 C158.04,8.1 151.61,7.78 149.55,8.1 Z" id="Shape" fill="url(#linearGradient-5)"></path>
                <path d="M154.52,3.71 C153.67,3.85 151.75,3.78 150.19,4.84 C148.419447,6.2536128 146.886706,7.94165393 145.65,9.84 C146.51,8.84 147.78,8.53 149.48,8.32 C151.18,8.11 153.6,8.18 155.37,7.9 C157.652539,7.59136635 159.675542,6.2732937 160.88,4.31 L163.75,0.05 C160.69,3.15 157.36,3.29 154.52,3.71 Z" id="Shape" fill="url(#linearGradient-6)"></path>
                <path d="M151.11,12.34 C149.05,12.62 146.71,12.69 146.01,12.76 C144.882208,12.7198259 143.775589,13.0733785 142.88,13.76 C141.818023,14.9971698 140.839211,16.3033658 139.95,17.67 C140.73,16.9 143.36,16.97 146.55,16.83 C150.052355,16.6265125 153.302888,14.9430714 155.49,12.2 L157.43,9.38 C156.17,11.1 153.88,11.92 151.11,12.34 Z" id="Shape" fill="url(#linearGradient-7)"></path>
                <path d="M183.01,14.53 C187.229043,18.3811858 187.565142,24.9096929 183.763889,29.1737787 C179.962636,33.4378644 173.438538,33.8507936 169.13,30.1 C171.887047,32.7182607 175.850438,33.628783 179.473749,32.4763024 C183.097061,31.3238218 185.806162,28.2909545 186.544026,24.5610542 C187.281889,20.8311539 185.931596,16.9952414 183.02,14.55" id="Shape" fill="#FFFFFF" fill-rule="nonzero"></path>
                <path d="M164.53,26.39 C164.19,26.57 164.12,26.85 164.29,27.28 C164.46,27.71 164.69,27.84 164.95,27.73 C165.21,27.62 165.2,27.47 165.11,27 L165.11,26.82 C165.048064,26.533307 165.048064,26.236693 165.11,25.95 C165.150599,25.7467733 165.294848,25.5797486 165.49,25.51 C165.96,25.32 166.41,25.61 166.67,26.28 C166.93,26.95 166.8,27.53 166.24,27.76 L166.11,27.41 C166.5,27.25 166.6,26.88 166.38,26.36 C166.16,25.84 165.94,25.75 165.66,25.86 C165.38,25.97 165.38,26.17 165.46,26.65 L165.46,26.85 L165.46,27.03 C165.502559,27.2412107 165.502559,27.4587893 165.46,27.67 C165.416126,27.8560328 165.2804,28.0068405 165.1,28.07 C164.65,28.25 164.22,27.99 163.99,27.39 C163.76,26.79 163.87,26.26 164.36,26.04 L164.53,26.39 Z" id="Shape" fill="#FFFFFF" fill-rule="nonzero"></path>
                <polygon id="Shape" fill="#FFFFFF" fill-rule="nonzero" points="164.23 22.62 165.81 21.29 165.82 21.78 164.48 22.89 164.91 23.37 165.86 23.35 165.87 23.74 163.17 23.8 163.16 23.41 164.22 23.39 164.37 23.39 164.51 23.39 164.42 23.29 164.32 23.2 163.14 21.91 163.12 21.4"></polygon>
                <path d="M165.42,18.46 L166.42,18.82 L166.29,19.19 L165.29,18.82 L163.43,19.38 L163.59,18.94 L164.74,18.62 L164.89,18.62 L165.08,18.62 C165.006229,18.5354865 164.939348,18.4451975 164.88,18.35 L164.16,17.35 L164.31,16.93 L165.42,18.46 Z" id="Shape" fill="#FFFFFF" fill-rule="nonzero"></path>
                <polygon id="Shape" fill="#FFFFFF" fill-rule="nonzero" points="167.24 13.52 166.67 14.22 168.37 15.61 167.96 16.1 166.26 14.71 165.7 15.41 165.31 15.09 166.85 13.21"></polygon>
                <polygon id="Shape" fill="#FFFFFF" fill-rule="nonzero" points="170.87 10.97 169.51 11.77 169.8 12.26 171.05 11.53 171.28 11.93 170.03 12.66 170.37 13.23 171.75 12.42 172 12.85 170.06 13.98 168.7 11.66 170.62 10.54"></polygon>
                <path d="M176.08,12.01 L175.38,12.06 L175.03,11.48 L173.94,11.65 L173.79,12.31 L173.12,12.49 L173.83,9.54 L174.49,9.44 L176.08,12.01 Z M174.54,10.63 C174.428315,10.4549874 174.331316,10.2710253 174.25,10.08 C174.225021,10.2852685 174.188294,10.488936 174.14,10.69 L174.02,11.2 L174.81,11.08 L174.54,10.63 Z" id="Shape" fill="#FFFFFF" fill-rule="nonzero"></path>
                <path d="M180.4,12.87 L179.83,12.66 L180.05,11.86 C180.05,11.77 180.11,11.64 180.15,11.47 L180.27,11.08 C180.27,10.97 180.33,10.86 180.37,10.74 L180.43,10.55 C180.319948,10.7493337 180.199792,10.942919 180.07,11.13 C180.019326,11.2172547 179.962517,11.3007985 179.9,11.38 L179.14,12.45 L178.65,12.32 L178.49,11.04 C178.49,10.97 178.49,10.88 178.49,10.75 C178.49,10.62 178.49,10.45 178.49,10.37 L178.49,10.04 L178.42,10.37 C178.34,10.72 178.3,10.87 178.2,11.3 L177.97,12.16 L177.38,12.07 L178.05,9.44 L178.96,9.61 L179.08,10.86 C179.105864,11.1527632 179.105864,11.4472368 179.08,11.74 C179.155196,11.5888571 179.238656,11.4419682 179.33,11.3 L179.54,10.97 L180.25,9.97 L181.11,10.26 L180.4,12.87 Z" id="Shape" fill="#FFFFFF" fill-rule="nonzero"></path>
                <path d="M175.26,18.1 C174.93,18.38 174.26,19 173.66,19.6 L172.95,20.28 C172.379067,20.1765783 171.800216,20.1230429 171.22,20.12 C170.122527,20.0484713 169.036069,20.3751189 168.16,21.04 C167.970307,21.2205375 167.859001,21.4682819 167.85,21.73 C167.85,22.37 168.59,22.73 168.85,22.73 C169.90298,23.1772292 171.115453,23.020411 172.02,22.32 C172.648403,21.8486585 173.243178,21.3340775 173.8,20.78 C174.21,20.87 174.68,20.99 175.19,21.14 L175.65,21.28 C175.05,21.87 174.43,22.5 173.86,23.01 L173.81,23.01 C173.205829,23.6587642 172.4447,24.1409275 171.6,24.41 C171.221607,24.5101151 170.820702,24.4819814 170.46,24.33 C170.92093,24.7641689 171.551806,24.9695703 172.18,24.89 C173.139055,24.7142787 174.015819,24.2338117 174.68,23.52 L175.88,22.35 L176.72,21.52 L178.41,22.02 C178.41,22.02 177.41,23.02 177.41,23.02 L176.51,23.92 C175.886371,24.5476907 175.217944,25.1292229 174.51,25.66 C173.842692,26.1992634 173.040244,26.5451462 172.19,26.66 C171.752281,26.7065222 171.310556,26.6230467 170.92,26.42 C170.92,26.42 170.92,26.42 170.92,26.42 C171.445771,26.9575544 172.168105,27.257323 172.92,27.25 C174,27.25 174.97,26.69 176.46,25.32 C177.15,24.69 177.82,23.99 178.46,23.32 L179.57,22.19 C180.261316,22.3515765 180.970222,22.4254908 181.68,22.41 C182.74,22.41 183.68,21.88 183.68,21.3 C183.654229,20.9585782 183.442939,20.6589313 183.13,20.52 C182.743102,20.2690386 182.291153,20.1369306 181.83,20.14 C180.92211,20.1792759 180.056069,20.5327621 179.38,21.14 L178.82,21.63 L178.62,21.57 L177.07,21.14 C177.53,20.71 177.92,20.35 178.27,20.04 C178.910286,19.4354095 179.726296,19.0501688 180.6,18.94 C181.070465,18.8873504 181.546492,18.9597893 181.98,19.15 C181.437041,18.6491811 180.718178,18.3832018 179.98,18.41 C179.073532,18.455721 178.209563,18.8083616 177.53,19.41 C176.979713,19.8739346 176.455575,20.3680264 175.96,20.89 L175.18,20.65 L174.99,20.59 L174.16,20.34 C174.16,20.34 174.64,19.9 174.64,19.9 C175.19,19.36 175.71,18.9 176.12,18.5 C176.932206,17.6628643 178.026142,17.1568745 179.19,17.08 C179.782206,17.0476481 180.369681,17.2015107 180.87,17.52 C180.228191,16.847847 179.328649,16.4836599 178.4,16.52 C177.194216,16.6411234 176.07582,17.2038833 175.26,18.1 M169.42,22.55 C168.94,22.55 168.7,22.35 168.7,21.95 C168.7,21.9 168.7,20.72 171.44,20.59 C171.829069,20.5518842 172.220931,20.5518842 172.61,20.59 C172.61,20.59 172.3,20.85 172.3,20.85 L172.14,21.01 C171.49,21.6 170.4,22.58 169.42,22.52 M180.34,21.52 C180.865249,21.0988895 181.493679,20.8261094 182.16,20.73 C182.4,20.73 182.68,20.81 182.68,21.11 C182.68,21.41 182.4,21.66 181.83,21.86 C181.157025,22.0496286 180.451412,22.0939425 179.76,21.99 C179.944958,21.8232707 180.138558,21.6663873 180.34,21.52" id="Shape" fill="#FFFFFF" fill-rule="nonzero"></path>
                <path d="M181.5,10.73 C181.560735,10.5835211 181.695002,10.4805708 181.852224,10.4599296 C182.009446,10.4392883 182.165737,10.504092 182.262224,10.6299296 C182.358711,10.7557672 182.380735,10.9235211 182.32,11.07 C182.226112,11.2964367 181.966437,11.4038884 181.74,11.31 C181.513563,11.2161116 181.406112,10.9564367 181.5,10.73 Z M182.24,11.08 C182.33702,10.8974965 182.270379,10.6709157 182.09,10.57 C181.906975,10.4784494 181.684315,10.5439374 181.58,10.72 C181.48298,10.9025035 181.549621,11.1290843 181.73,11.23 C181.913025,11.3215506 182.135685,11.2560626 182.24,11.08 Z M181.98,11.21 L181.91,11.21 L181.91,10.95 L181.84,10.95 L181.73,11.14 L181.67,11.14 L181.9,10.72 L182.09,10.82 C182.16,10.82 182.23,10.92 182.18,11.01 C182.157767,11.0435174 182.120221,11.0636675 182.08,11.0636675 C182.039779,11.0636675 182.002233,11.0435174 181.98,11.01 L181.98,11.21 Z M181.92,10.85 C181.97,10.85 182.06,10.94 182.1,10.85 C182.14,10.76 182.1,10.77 182.02,10.74 L181.95,10.7 L181.89,10.81 L181.92,10.85 Z" id="Shape" fill="#FFFFFF" fill-rule="nonzero"></path>
                <path d="M55.6,41.1 C60.3490354,41.8464855 65.1435444,42.2674667 69.95,42.36 C76.9488932,42.5335907 83.9494394,42.0885273 90.87,41.03 C97.1711356,40.1290995 103.348161,38.5085109 109.28,36.2 C111.948937,35.2152642 114.443636,33.8109409 116.67,32.04 C114.369919,34.0934944 111.748414,35.755583 108.91,36.96 C102.703845,39.7259058 96.1966762,41.7596057 89.52,43.02 C82.4581317,44.4265227 75.280233,45.1697566 68.08,45.24 C63.7623298,45.3130192 59.4456226,45.0455238 55.17,44.44 C50.6646368,43.8712601 46.304054,42.4708552 42.31,40.31 C39.66,38.72 38.77,37.31 39.05,37.02 C39.33,36.73 40.66,37.35 43.34,38.22 C47.3421135,39.5097692 51.4422129,40.4729247 55.6,41.1" id="Shape" fill="#EE7203" fill-rule="nonzero"></path>
                <polygon id="Shape" fill="#FFFFFF" points="83.96 21.06 88.03 12.61 88.11 12.61 92.61 21.06 97.24 21.06 91.27 10.13 87.35 10.13 81.95 21.06"></polygon>
                <path d="M19.95,16.29 L26.34,16.21 C26.2956975,17.2816279 25.7885643,18.2813005 24.95,18.95 C23.9842544,19.6108247 22.8287829,19.9374473 21.66,19.88 C20.6437111,19.9288844 19.6354093,19.6785474 18.76,19.16 C18.1286269,18.7770655 17.5782868,18.2742857 17.14,17.68 L16.85,17.24 L14.77,18.46 C15.4904514,19.2853415 16.3629785,19.964351 17.34,20.46 C18.7914321,21.1805922 20.4008179,21.524478 22.02,21.46 C23.85,21.46 26.7,21.2 28.77,19.62 C30.0809639,18.7396028 30.8673924,17.2641534 30.8673924,15.685 C30.8673924,14.1058466 30.0809639,12.6303972 28.77,11.75 C26.7864673,10.4457264 24.4414569,9.80172353 22.07,9.91 C20.6134513,9.86839992 19.1619324,10.0990151 17.79,10.59 C16.6776104,10.9930891 15.6574573,11.6153825 14.79,12.42 L16.87,13.61 L17.37,13.06 C17.8659967,12.5529966 18.4619238,12.1545768 19.12,11.89 C19.9488277,11.5306449 20.8471249,11.359866 21.75,11.39 C23.0339832,11.3000504 24.2998231,11.7328162 25.26,12.59 C25.8417692,13.1868867 26.1956589,13.968983 26.26,14.8 L19.95,14.62 L19.95,16.29 Z" id="Shape" fill="#FFFFFF"></path>
                <path d="M104.6,11.16 C105.81764,11.0819372 106.994458,11.6141286 107.74,12.58 C108.357088,13.454254 108.660192,14.5115925 108.6,15.58 C108.658612,16.6482302 108.355655,17.7050597 107.74,18.58 C106.946386,19.4831646 105.802302,20.0008697 104.6,20.0008697 C103.397698,20.0008697 102.253614,19.4831646 101.46,18.58 C100.84857,17.7030446 100.546038,16.6477012 100.6,15.58 C100.544502,14.512123 100.847174,13.4562909 101.46,12.58 C102.205542,11.6141286 103.38236,11.0819372 104.6,11.16 M104.6,21.38 C106.890787,21.4413783 109.145356,20.79921 111.06,19.54 C112.337733,18.6295166 113.120833,17.1778272 113.18,15.61 C113.119373,14.0398386 112.336942,12.5856972 111.06,11.67 C109.145356,10.41079 106.890787,9.76862175 104.6,9.83 C102.30357,9.77345801 100.044033,10.4150549 98.12,11.67 C96.8090361,12.5503972 96.0226076,14.0258466 96.0226076,15.605 C96.0226076,17.1841534 96.8090361,18.6596028 98.12,19.54 C100.044033,20.7949451 102.30357,21.436542 104.6,21.38" id="Shape" fill="#FFFFFF"></path>
                <path d="M69.69,12.89 C70.1199704,12.7523336 70.5685309,12.6815083 71.02,12.68 L71.51,12.68 L71.51,18.36 L71.02,18.36 C70.5681504,18.3634077 70.1188178,18.2924605 69.69,18.15 C69.3472292,18.0583413 69.0294126,17.8908896 68.76,17.66 C68.1858748,17.0959422 67.8624747,16.3248484 67.8624747,15.52 C67.8624747,14.7151516 68.1858748,13.9440578 68.76,13.38 C69.0317697,13.1526022 69.3487764,12.9855772 69.69,12.89 M77.2,19.75 C78.6677285,19.7325155 80.1066187,19.3400908 81.38,18.61 C82.4813591,17.9669946 83.1560639,16.7853082 83.15,15.51 C83.135033,14.2455853 82.4649313,13.0795326 81.38,12.43 C80.1057683,11.7019602 78.6674198,11.3096834 77.2,11.29 C76.78,11.29 76.37,11.29 75.96,11.29 L75.51,11.29 L75.51,9.79 L71.36,9.79 L71.36,11.29 L70.95,11.29 C70.54,11.29 70.12,11.29 69.71,11.29 C68.2417733,11.3039091 66.8019954,11.6965758 65.53,12.43 C64.4426581,13.0784829 63.7690172,14.2441087 63.75,15.51 C63.7480663,16.7868191 64.4263069,17.9680247 65.53,18.61 C66.8005774,19.3468227 68.2412695,19.7397387 69.71,19.75 C70.09,19.75 70.5,19.75 70.95,19.75 L71.38,19.75 L71.38,21.34 L75.53,21.34 L75.53,19.79 L75.95,19.79 C76.4,19.79 76.81,19.79 77.19,19.79 M77.19,12.93 C77.5303418,13.0277805 77.8469116,13.1945753 78.12,13.42 C78.6941252,13.9840578 79.0175253,14.7551516 79.0175253,15.56 C79.0175253,16.3648484 78.6941252,17.1359422 78.12,17.7 C77.8492831,17.9289629 77.5319192,18.0961762 77.19,18.19 C76.7543108,18.3325172 76.2983933,18.4034376 75.84,18.4 L75.37,18.4 L75.37,12.68 L75.84,12.68 C76.2980167,12.6815017 76.7531692,12.7523032 77.19,12.89" id="Shape" fill="#FFFFFF"></path>
                <path d="M54.25,11.16 C55.4697866,11.0856502 56.6479524,11.6167599 57.4,12.58 C58.012826,13.4562909 58.3154979,14.512123 58.26,15.58 C58.3139622,16.6477012 58.0114304,17.7030446 57.4,18.58 C56.6027012,19.4840518 55.4554024,20.0019611 54.25,20.0019611 C53.0445976,20.0019611 51.8972988,19.4840518 51.1,18.58 C50.4871677,17.7041335 50.1876908,16.6471565 50.25,15.58 C50.1853091,14.5125844 50.485004,13.4548376 51.1,12.58 C51.8509407,11.6153514 53.029891,11.0838881 54.25,11.16 M54.25,21.38 C56.5437675,21.4402201 58.8011869,20.7982337 60.72,19.54 C62.0222885,18.6536112 62.8016843,17.1803224 62.8016843,15.605 C62.8016843,14.0296776 62.0222885,12.5563888 60.72,11.67 C56.7552007,9.21778198 51.7447993,9.21778198 47.78,11.67 C46.4690361,12.5503972 45.6826076,14.0258466 45.6826076,15.605 C45.6826076,17.1841534 46.4690361,18.6596028 47.78,19.54 C49.6988131,20.7982337 51.9562325,21.4402201 54.25,21.38" id="Shape" fill="#FFFFFF"></path>
                <path d="M38.61,17.1 L39.38,17.1 C40.882621,17.2206407 42.3897572,16.930275 43.74,16.26 C44.698533,15.7166569 45.2820868,14.6915986 45.26,13.59 C45.2850917,12.4980483 44.6986724,11.4833885 43.74,10.96 C42.74,10.37 41.43,10.18 39.2,10.18 L32.11,10.18 L32.11,21.1 L36.26,21.1 L36.26,17.1 L38.61,17.1 Z M38.61,11.86 C39.1732915,11.8534815 39.7284368,11.9948539 40.22,12.27 C40.6622067,12.5476167 40.9362061,13.0280541 40.95,13.55 C40.961945,14.1180823 40.6679342,14.6488291 40.18,14.94 C39.7028171,15.2293087 39.1579049,15.387954 38.6,15.4 L36.26,15.4 L36.26,11.78 L38.18,11.78 C38.3230269,11.7667457 38.4669731,11.7667457 38.61,11.78 L38.61,11.86 Z" id="Shape" fill="#FFFFFF"></path>
                <path d="M6.51,12.7 L8.58,16.42 L4.45,16.42 L6.45,12.62 L6.5,12.62 L6.51,12.7 Z M9.42,17.91 L11.2,21.1 L15.83,21.1 L9.55,10.1 L5.71,10.1 L0,21.1 L2.06,21.1 L3.7,17.95 L9.42,17.91 Z" id="Shape" fill="#FFFFFF"></path>
                <polygon id="Shape" fill="#FFFFFF" points="112.52 11.79 116.97 11.79 116.97 21.06 121.12 21.06 121.12 11.79 125.59 11.79 125.59 10.13 112.52 10.13"></polygon>
                <path d="M5.44,31.69 L4.26,31.15 L9.15,30.52 C9.24,30.66 9.32,30.8 9.41,30.93 L5.44,31.69 Z M18.55,31.69 L19.73,31.1 L14.87,30.48 C14.809019,30.6373725 14.7210314,30.7828905 14.61,30.91 L18.55,31.69 Z M17.84,31.78 L16.36,32.3 L14.26,31.63 L14.08,31.57 C14.147555,31.5105414 14.2079613,31.4434233 14.26,31.37 C14.34,31.29 14.42,31.19 14.5,31.12 L17.84,31.78 Z M21.74,30.32 L20.39,30.98 L15,30.32 C15,30.18 15.09,30.05 15.13,29.91 L21.74,30.32 Z M22.23,30.12 L23.95,28.94 L14.44,28.94 C14.4519473,29.314873 14.3908104,29.6884873 14.26,30.04 C13.9152341,30.9581071 13.0198487,31.5509974 12.04,31.51 C11.0874224,31.4992047 10.2216604,30.9542384 9.8,30.1 C9.64683712,29.7465477 9.56852628,29.365208 9.57,28.98 L0,28.98 L1.75,30.1 L9.06,29.7 C9.18507644,30.2214458 9.43958453,30.7029476 9.8,31.1 C10.3759859,31.7291237 11.1870761,32.0912175 12.04,32.1 C12.8943839,32.1256857 13.7130873,31.7569004 14.26,31.1 C14.5910454,30.7092421 14.8272025,30.2471957 14.95,29.75 L22.23,30.12 Z M14.23,33.19 L14.41,33.55 L14.23,33.65 L13.73,33.88 L13.17,32.69 C12.799342,32.8324756 12.4069786,32.9102718 12.01,32.92 C11.5891087,32.9368752 11.1687213,32.8758512 10.77,32.74 L10.28,33.88 C10.1035482,33.9067784 9.92327364,33.8714305 9.77,33.78 C9.68756297,33.7262241 9.62722235,33.6445868 9.6,33.55 L9.77,33.25 L10.18,32.47 C10.0527965,32.3945549 9.93526315,32.3038863 9.83,32.2 L10.17,31.76 C10.7131099,32.1310017 11.3524177,32.3359971 12.01,32.35 C12.674013,32.3549442 13.3197464,32.1326426 13.84,31.72 L14.23,31.84 L14.39,31.9 L14.23,32.03 C14.1202392,32.1711384 13.9844594,32.2899457 13.83,32.38 L14.23,33.19 Z M14.23,27.04 C14.6206949,27.5370614 14.8880021,28.1196541 15.01,28.74 L14.4,28.74 C14.3599457,28.5454358 14.3030652,28.3547189 14.23,28.17 C13.7879855,27.0798759 13.0104518,26.1587436 12.01,25.54 C11.89,25.46 11.77,25.37 11.64,25.3 L12.01,25.43 C12.8768703,25.7654856 13.6418138,26.3202419 14.23,27.04 Z M12.58,31.28 C12.794429,31.2353932 12.9960746,31.1431147 13.17,31.01 L12.17,29.01 L13.17,28.5 L12.32,27.72 L11.97,27.88 L10.51,28.59 L10.94,29.59 L11.63,29.26 L12.58,31.28 Z M9.95,31.57 C9.89,31.57 9.84,31.46 9.78,31.42 C9.67523938,31.3209582 9.57828441,31.2139734 9.49,31.1 L6.16,31.77 L7.58,32.28 L9.95,31.57 Z M9.04,30.32 C8.99,30.18 8.94,30.05 8.9,29.91 L2.22,30.32 L3.57,31.01 L9.04,30.32 Z" id="Shape" fill="#FFFFFF"></path>
                <path d="M38.18,27.1 C38.6520937,27.0576627 39.1220796,27.2011699 39.49,27.5 C39.7145812,27.7536329 39.807139,28.0979477 39.74,28.43 C39.6672947,29.0385689 39.349475,29.5911417 38.86,29.96 C38.3938088,30.2945046 37.8337756,30.4730152 37.26,30.47 L36.07,30.47 L35.27,33.05 L34.48,33.05 L36.31,27.1 L38.18,27.1 Z M36.28,29.79 L37.45,29.79 C37.7692008,29.7957876 38.0816094,29.6975018 38.34,29.51 C38.6244376,29.2679457 38.8183387,28.936551 38.89,28.57 C38.9290895,28.3686652 38.877916,28.160316 38.75,28 C38.5616843,27.8390209 38.3169218,27.759833 38.07,27.78 L36.95,27.78 L36.28,29.79 Z" id="Shape" fill="#FFFFFF" fill-rule="nonzero"></path>
                <path d="M43.34,29.32 C43.4886182,29.631014 43.5341586,29.981325 43.47,30.32 C43.3698437,31.1767315 42.9695119,31.9703095 42.34,32.56 C41.9494955,32.8893744 41.4604463,33.0793647 40.95,33.1 C40.5074216,33.1456996 40.0772254,32.936415 39.84,32.56 C39.6859173,32.250733 39.6367714,31.8996906 39.7,31.56 C39.7976746,30.6917564 40.2019043,29.8868427 40.84,29.29 C41.2408606,28.9529834 41.746323,28.7656442 42.27,28.76 C42.7092965,28.7191843 43.1355618,28.9227163 43.38,29.29 L43.34,29.32 Z M42.64,30.72 C42.7932915,30.3588458 42.8145334,29.9552503 42.7,29.58 C42.5708356,29.3840612 42.3434674,29.2761576 42.11,29.3 C41.8058678,29.3027623 41.5149863,29.4248607 41.3,29.64 C41.0108889,29.941199 40.8072389,30.3139819 40.71,30.72 L40.55,31.1 C40.46,31.4 40.29,31.92 40.48,32.24 C40.6075894,32.4377418 40.8361318,32.5462026 41.07,32.52 C41.3512699,32.5182205 41.6232851,32.4193059 41.84,32.24 C42.1609859,31.9313506 42.3836369,31.5347534 42.48,31.1 L42.64,30.72 Z" id="Shape" fill="#FFFFFF" fill-rule="nonzero"></path>
                <path d="M46.95,32.68 C46.7758753,32.7697872 46.5953896,32.8466608 46.41,32.91 C46.0918208,33.035437 45.7519484,33.0966141 45.41,33.09 C45.0318876,33.0997378 44.667764,32.9468059 44.41,32.67 C44.2157777,32.3492546 44.1380786,31.9713543 44.19,31.6 C44.2806659,30.6244752 44.755561,29.7250526 45.51,29.1 C45.8882257,28.8756476 46.3202442,28.7581385 46.76,28.76 C47.0472873,28.7546207 47.330663,28.8271926 47.58,28.97 C47.7842434,29.1142293 47.8857915,29.364194 47.84,29.61 C47.8122976,29.7788284 47.7547311,29.9413693 47.67,30.09 L46.99,30.15 C47.1129649,29.9559454 47.1388282,29.7157862 47.06,29.5 C46.9268777,29.3503704 46.7287867,29.2756191 46.53,29.3 C46.3223016,29.2975916 46.1180252,29.3529886 45.94,29.46 C45.545506,29.724172 45.2721226,30.1342471 45.18,30.6 L45.02,31.14 C44.8930039,31.4612373 44.8930039,31.8187627 45.02,32.14 C45.09,32.29 45.27,32.49 45.74,32.49 C45.9571839,32.4894903 46.1730125,32.4557671 46.38,32.39 C46.5601426,32.3426024 46.7345246,32.2755324 46.9,32.19 L46.95,32.68 Z" id="Shape" fill="#FFFFFF" fill-rule="nonzero"></path>
                <path d="M51.07,32.68 C50.8924175,32.7697526 50.70861,32.8466176 50.52,32.91 C50.2021165,33.0364748 49.8620331,33.0976898 49.52,33.09 C49.141395,33.1023817 48.7762211,32.9490086 48.52,32.67 C48.316609,32.3529179 48.2382083,31.9716057 48.3,31.6 C48.3953535,30.6235957 48.873562,29.7247074 49.63,29.1 C50.0082257,28.8756476 50.4402442,28.7581385 50.88,28.76 C51.1674637,28.753089 51.4512445,28.8257646 51.7,28.97 C51.9042434,29.1142293 52.0057915,29.364194 51.96,29.61 C51.9368686,29.7799696 51.8790014,29.9433593 51.79,30.09 L51.12,30.15 C51.235393,29.9529489 51.2573718,29.7148448 51.18,29.5 C51.047906,29.3488816 50.8489983,29.2738221 50.65,29.3 C50.4423016,29.2975916 50.2380252,29.3529886 50.06,29.46 C49.6686057,29.7272513 49.3961572,30.135924 49.3,30.6 L49.14,31.14 C49.0130039,31.4612373 49.0130039,31.8187627 49.14,32.14 C49.2889232,32.3895975 49.5717244,32.5270703 49.86,32.49 C50.080465,32.4895742 50.2996019,32.4558608 50.51,32.39 C50.6869421,32.3426085 50.8580112,32.2755226 51.02,32.19 L51.07,32.68 Z" id="Shape" fill="#FFFFFF" fill-rule="nonzero"></path>
                <polygon id="Shape" fill="#FFFFFF" fill-rule="nonzero" points="55.56 33.01 54.85 33.01 55.85 29.77 52.97 33.01 52.13 33.01 53.4 28.87 54.11 28.87 53.12 32.1 55.99 28.87 56.84 28.87"></polygon>
                <path d="M60.54,33 L59.83,33 L60.83,29.77 L57.95,33 L57.11,33 L58.38,28.87 L59.09,28.87 L58.09,32.1 L60.95,28.87 L61.8,28.87 L60.54,33 Z M61.71,27.1 L61.65,27.36 C61.575327,27.6515566 61.3733113,27.8939754 61.1,28.02 C60.8558531,28.1556278 60.579058,28.2213666 60.3,28.21 C60.0544365,28.233957 59.808685,28.1662863 59.61,28.02 C59.4698214,27.9027465 59.4014841,27.7205139 59.43,27.54 C59.4501983,27.3833204 59.5048395,27.233057 59.59,27.1 L60.15,27.1 L60.15,27.2 C60.0803332,27.3206664 60.0803332,27.4693336 60.15,27.59 C60.2382235,27.6738249 60.3591262,27.7141258 60.48,27.7 C60.6215362,27.7058928 60.7613792,27.6674359 60.88,27.59 C61.0045925,27.4916068 61.0926133,27.3542944 61.13,27.2 L61.13,27.1 L61.71,27.1 Z" id="Shape" fill="#FFFFFF" fill-rule="nonzero"></path>
                <path d="M65.02,32.68 C64.8467572,32.7716508 64.6661222,32.848588 64.48,32.91 C64.1618208,33.035437 63.8219484,33.0966141 63.48,33.09 C63.101395,33.1023817 62.7362211,32.9490086 62.48,32.67 C62.2783082,32.352124 62.196745,31.9726777 62.25,31.6 C62.3500215,30.6227215 62.8315444,29.7243578 63.59,29.1 C63.9682257,28.8756476 64.4002442,28.7581385 64.84,28.76 C65.1272873,28.7546207 65.410663,28.8271926 65.66,28.97 C65.8647323,29.1134284 65.9633054,29.3657755 65.91,29.61 C65.895054,29.7803349 65.8402441,29.9447644 65.75,30.09 L65.07,30.15 C65.195982,29.9564906 65.2184302,29.7133013 65.13,29.5 C65.08,29.4 64.91,29.3 64.61,29.3 C64.3993021,29.2988087 64.1921282,29.3540551 64.01,29.46 C63.6208444,29.7275984 63.3516957,30.1367044 63.26,30.6 L63.1,31.14 C62.9730039,31.4612373 62.9730039,31.8187627 63.1,32.14 C63.17,32.29 63.35,32.49 63.82,32.49 C64.0404065,32.4888273 64.2594332,32.4551309 64.47,32.39 C64.6469421,32.3426085 64.8180112,32.2755226 64.98,32.19 L65.02,32.68 Z" id="Shape" fill="#FFFFFF" fill-rule="nonzero"></path>
                <path d="M68.67,33 L68.49,31.7 C68.4847545,31.5324198 68.4328024,31.3696365 68.34,31.23 C68.2339955,31.1338708 68.0924812,31.0866993 67.95,31.1 L67.37,31.1 L66.79,32.99 L66.07,32.99 L67.35,28.86 L68.06,28.86 L67.56,30.5 L68.06,30.5 C68.2404852,30.5080611 68.4189254,30.4590775 68.57,30.36 C68.7017447,30.2423597 68.813234,30.1038427 68.9,29.95 L69.19,29.49 C69.3220437,29.2002234 69.5522729,28.9664522 69.84,28.83 C69.9500863,28.7959416 70.0647693,28.7790765 70.18,28.78 C70.2984658,28.7797248 70.4163499,28.7965654 70.53,28.83 L70.29,29.38 C70.1810545,29.3508055 70.0648468,29.368963 69.97,29.43 C69.8699916,29.5122057 69.7882476,29.6143857 69.73,29.73 L69.5,30.09 C69.4107791,30.2735613 69.2808067,30.4343167 69.12,30.56 C68.9942518,30.6495312 68.856136,30.7202735 68.71,30.77 C68.8529027,30.8094501 68.9813792,30.8893138 69.08,31 C69.1568571,31.1360939 69.2077226,31.2852994 69.23,31.44 L69.45,32.96 L68.67,33 Z" id="Shape" fill="#FFFFFF" fill-rule="nonzero"></path>
                <polygon id="Shape" fill="#FFFFFF" fill-rule="nonzero" points="73.81 33.01 73.09 33.01 74.09 29.77 71.21 33.01 70.37 33.01 71.64 28.87 72.36 28.87 71.36 32.1 74.23 28.87 75.08 28.87"></polygon>
                <path d="M76.39,31.22 C76.285608,31.5212115 76.285608,31.8487885 76.39,32.15 C76.5818015,32.3916032 76.8829422,32.519588 77.19,32.49 C77.4070989,32.4884281 77.6227695,32.4547296 77.83,32.39 C78.0069421,32.3426085 78.1780112,32.2755226 78.34,32.19 L78.42,32.68 C78.2424175,32.7697526 78.05861,32.8466176 77.87,32.91 C77.5512614,33.0334567 77.2117822,33.094563 76.87,33.09 C76.3888304,33.1324453 75.9247455,32.9004029 75.67,32.49 C75.4118207,31.3335231 75.7935044,30.1274026 76.67,29.33 C77.0460308,28.9897529 77.5329439,28.797831 78.04,28.79 C78.4347224,28.7621109 78.8148661,28.9445798 79.04,29.27 C79.2188615,29.8159314 79.1831051,30.4094882 78.94,30.93 L78.88,31.11 L76.42,31.11 L76.39,31.22 Z M78.26,30.57 L78.26,30.4 C78.3589197,30.1356165 78.3589197,29.8443835 78.26,29.58 C78.1696099,29.4130194 77.9892838,29.3150161 77.8,29.33 C77.5287514,29.320398 77.2652514,29.4214665 77.07,29.61 C76.8153953,29.8446849 76.6317658,30.1461144 76.54,30.48 L76.54,30.57 L78.26,30.57 Z" id="Shape" fill="#FFFFFF" fill-rule="nonzero"></path>
                <path d="M86.01,32.49 C85.8443948,32.660399 85.6518081,32.802305 85.44,32.91 C85.2188306,33.0384357 84.9655248,33.1008946 84.71,33.09 C84.4351741,33.1121959 84.1616166,33.0340366 83.94,32.87 C83.7230922,32.6860894 83.6234653,32.398704 83.68,32.12 C83.7484205,31.6264919 84.0298888,31.1878399 84.45,30.92 C84.9051957,30.6596174 85.426573,30.5379626 85.95,30.57 L86.57,30.57 L86.73,30.03 C86.8260233,29.8436692 86.7982554,29.6175597 86.66,29.46 C86.5116745,29.3556339 86.3301867,29.3093723 86.15,29.33 C85.9361481,29.325746 85.7241311,29.3702012 85.53,29.46 C85.3426728,29.5681534 85.208669,29.7492396 85.16,29.96 L84.53,29.96 C84.5622367,29.5928164 84.7762373,29.2661839 85.1,29.09 C85.4900134,28.905018 85.9185729,28.8158776 86.35,28.83 C86.7234337,28.8004266 87.0904456,28.9398911 87.35,29.21 C87.4503279,29.3893234 87.4823003,29.5989198 87.44,29.8 C87.411175,29.9939431 87.3643049,30.1847713 87.3,30.37 L86.47,33.04 L85.83,33.04 L86.01,32.49 Z M86.38,31.08 L85.73,31.08 C85.425222,31.0578717 85.1211237,31.1312747 84.86,31.29 C84.6315667,31.4484335 84.4793946,31.6948073 84.44,31.97 C84.4038768,32.1037372 84.4377297,32.2466718 84.53,32.35 C84.6511174,32.4783883 84.8241061,32.5446393 85,32.53 C85.2273428,32.5307506 85.4498946,32.4646805 85.64,32.34 C85.8144146,32.2370106 85.9727688,32.1089795 86.11,31.96 L86.38,31.08 Z" id="Shape" fill="#FFFFFF" fill-rule="nonzero"></path>
                <path d="M89.13,28.87 L90.95,28.87 C91.2590137,28.8201456 91.571251,28.9381865 91.77,29.18 C91.8849858,29.3424444 91.9316623,29.5435122 91.9,29.74 C91.8563966,30.0240758 91.7232715,30.2868227 91.52,30.49 C91.3667538,30.6364451 91.1820447,30.7459023 90.98,30.81 C91.134016,30.8537647 91.2660335,30.9536698 91.35,31.09 C91.437353,31.2374196 91.4692647,31.4111608 91.44,31.58 C91.3767529,31.9884901 91.1444426,32.351475 90.8,32.58 C90.4700898,32.8213824 90.068523,32.9446705 89.66,32.93 L87.89,32.93 L89.13,28.87 Z M88.74,32.46 L89.74,32.46 C89.9530079,32.4687381 90.1632339,32.4091741 90.34,32.29 C90.5479324,32.133839 90.6818843,31.8985181 90.71,31.64 C90.7392664,31.5070622 90.6931758,31.3687904 90.59,31.28 C90.4758867,31.1913836 90.3344077,31.1454029 90.19,31.15 L89.19,31.15 L88.74,32.46 Z M89.31,30.61 L90.21,30.61 C90.4141194,30.620447 90.6165386,30.5680972 90.79,30.46 C90.9830207,30.3170254 91.1065362,30.0990569 91.13,29.86 C91.1559429,29.7331966 91.1097891,29.6024274 91.01,29.52 C90.8956611,29.441385 90.7585665,29.4027173 90.62,29.41 L89.68,29.41 L89.31,30.61 Z" id="Shape" fill="#FFFFFF" fill-rule="nonzero"></path>
                <polygon id="Shape" fill="#FFFFFF" fill-rule="nonzero" points="95.65 33.01 94.94 33.01 95.94 29.77 93.08 33.01 92.25 33.01 93.51 28.87 94.22 28.87 93.23 32.1 96.08 28.87 96.92 28.87"></polygon>
                <path d="M99.52,32.49 C99.3543948,32.660399 99.1618081,32.802305 98.95,32.91 C98.7282146,33.0369039 98.4753581,33.0992521 98.22,33.09 C97.945083,33.1131227 97.6712044,33.0348716 97.45,32.87 C97.2330922,32.6860894 97.1334653,32.398704 97.19,32.12 C97.2584205,31.6264919 97.5398888,31.1878399 97.96,30.92 C98.4147609,30.6585129 98.936474,30.5367799 99.46,30.57 L100.07,30.57 L100.24,30.03 C100.325255,29.8404378 100.294144,29.6187694 100.16,29.46 C100.016006,29.3544992 99.8371457,29.3079957 99.66,29.33 C99.4461481,29.325746 99.2341311,29.3702012 99.04,29.46 C98.8526728,29.5681534 98.718669,29.7492396 98.67,29.96 L98.03,29.96 C98.0660841,29.5913991 98.2836315,29.2650779 98.61,29.09 C99.0000134,28.905018 99.4285729,28.8158776 99.86,28.83 C100.250084,28.7861948 100.6383,28.9266918 100.91,29.21 C101.005473,29.3909571 101.037179,29.5988079 101,29.8 C100.967586,29.994198 100.917375,30.1850022 100.85,30.37 L100.03,33.04 L99.39,33.04 L99.52,32.49 Z M99.88,31.08 L99.24,31.08 C98.9320446,31.0577629 98.6247294,31.1310995 98.36,31.29 C98.1315667,31.4484335 97.9793946,31.6948073 97.94,31.97 C97.9147897,32.1036974 97.9475013,32.2418126 98.03,32.35 C98.1542127,32.4800074 98.3309307,32.5462767 98.51,32.53 C98.7373428,32.5307506 98.9598946,32.4646805 99.15,32.34 C99.3230892,32.2393512 99.4784876,32.1109786 99.61,31.96 L99.88,31.08 Z" id="Shape" fill="#FFFFFF" fill-rule="nonzero"></path>
                <path d="M104.11,33 L103.41,33 L104.49,29.46 L103.36,29.46 L103.21,29.92 C103.03,30.48 102.84,31.01 102.62,31.54 C102.45314,32.0380054 102.139368,32.4738001 101.72,32.79 C101.448886,32.9650394 101.140762,33.0745947 100.82,33.11 L100.82,32.51 C101.05655,32.461867 101.281001,32.3666452 101.48,32.23 C101.737673,32.0064697 101.933891,31.7207487 102.05,31.4 C102.22,30.99 102.55,30.07 102.71,29.55 L102.92,28.87 L105.38,28.87 L104.11,33 Z" id="Shape" fill="#FFFFFF" fill-rule="nonzero"></path>
                <polygon id="Shape" fill="#FFFFFF" fill-rule="nonzero" points="108.95 33.01 108.24 33.01 109.24 29.77 106.38 33.01 105.55 33.01 106.81 28.87 107.52 28.87 106.53 32.1 109.38 28.87 110.22 28.87"></polygon>
                <polygon id="Shape" fill="#FFFFFF" fill-rule="nonzero" points="113.56 33.01 112.86 33.01 113.43 31.14 111.66 31.14 111.09 33.01 110.38 33.01 111.65 28.87 112.35 28.87 111.84 30.55 113.61 30.55 114.12 28.87 114.83 28.87"></polygon>
                <polygon id="Shape" fill="#FFFFFF" fill-rule="nonzero" points="118.4 33.01 117.69 33.01 118.69 29.77 115.83 33.01 115 33.01 116.26 28.87 116.97 28.87 115.98 32.1 118.83 28.87 119.67 28.87"></polygon>
                <polygon id="Shape" fill="#FFFFFF" fill-rule="nonzero" points="123.24 33.01 122.53 33.01 123.52 29.77 120.67 33.01 119.83 33.01 121.1 28.87 121.8 28.87 120.82 32.1 123.67 28.87 124.5 28.87"></polygon>
            </g>
        </g>
    </g>
</svg>