<svg width="28" height="28" viewBox="0 0 28 28" fill="none" xmlns="http://www.w3.org/2000/svg">
<rect width="28" height="28" rx="14" fill="#1AAD19"/>
<path fill-rule="evenodd" clip-rule="evenodd" d="M5 11.625C5 8.51887 8.02175 6 11.75 6C15.044 6 17.7834 7.96762 18.3774 10.5686C18.0489 10.5281 17.7159 10.5 17.375 10.5C13.6524 10.5 10.625 13.0234 10.625 16.125C10.625 16.4861 10.67 16.8382 10.7487 17.1814C10.1716 17.1105 9.63162 16.9586 9.11187 16.7741L6.6875 17.8125L7.57737 16.0327C6.01025 15.0045 5 13.416 5 11.625ZM17.375 11.625C20.4811 11.625 23 13.6399 23 16.125C23 17.5639 22.1405 18.8306 20.8265 19.6541L21.875 21.75L18.8431 20.4506C18.3717 20.553 17.8857 20.625 17.375 20.625C14.2689 20.625 11.75 18.6101 11.75 16.125C11.75 13.6399 14.2689 11.625 17.375 11.625Z" fill="white"/>
</svg>
