<svg width="39" height="51" viewBox="0 0 39 51" fill="none" xmlns="http://www.w3.org/2000/svg">
<path fill-rule="evenodd" clip-rule="evenodd" d="M5.99041 47.5385C5.99041 47.5385 6.75007 51 10.6602 51H28.3403C32.2503 51 33.0099 47.5385 33.0099 47.5385L36.5003 13.6001H2.50025L5.99041 47.5385ZM26.3003 18.7002C26.3003 17.7612 27.0613 17.0002 28.0003 17.0002C28.9392 17.0002 29.7004 17.7612 29.7004 18.7002L28.0003 44.2001C28.0003 45.1391 27.2391 45.9001 26.3003 45.9001C25.3615 45.9001 24.6003 45.1389 24.6003 44.2001L26.3003 18.7002ZM17.8003 18.7002C17.8003 17.7612 18.5615 17.0002 19.5003 17.0002C20.4392 17.0002 21.2002 17.7612 21.2002 18.7002V44.2001C21.2002 45.1391 20.4392 45.9001 19.5003 45.9001C18.5613 45.9001 17.8003 45.1389 17.8003 44.2001V18.7002ZM11.0003 17C11.9392 17 12.7002 17.761 12.7002 18.7L14.4004 44.2C14.4004 45.1389 13.6392 45.8999 12.7002 45.8999C11.7614 45.8999 11.0003 45.1387 11.0003 44.2L9.30029 18.7002C9.30029 17.7612 10.0615 17 11.0003 17ZM35.4802 6.8027H28.0003V3.40011C28.0003 0.821012 27.1661 0 24.6003 0H14.4002C12.0468 0 11.0003 1.13996 11.0003 3.40011V6.80289H3.52035C2.01699 6.80289 0.800293 7.94398 0.800293 9.35406C0.800293 10.7643 2.01699 11.9054 3.52035 11.9054H35.4802C36.9835 11.9054 38.2002 10.7643 38.2002 9.35406C38.2002 7.94398 36.9835 6.8027 35.4802 6.8027ZM24.6003 6.8027H14.4004L14.4006 3.39992H24.6005V6.8027H24.6003Z" fill="white"/>
</svg>
