<svg width="48" height="48" viewBox="0 0 48 48" fill="none" xmlns="http://www.w3.org/2000/svg">
<path d="M47.3398 44.5273L35.8359 33.0234C38.6875 29.5469 40.4062 25.0938 40.4062 20.2402C40.4062 9.10742 31.373 0.0742188 20.2402 0.0742188C9.09766 0.0742188 0.0742188 9.10742 0.0742188 20.2402C0.0742188 31.373 9.09766 40.4062 20.2402 40.4062C25.0938 40.4062 29.5371 38.6973 33.0137 35.8457L44.5176 47.3398C45.2988 48.1211 46.5586 48.1211 47.3398 47.3398C48.1211 46.5684 48.1211 45.2988 47.3398 44.5273ZM20.2402 36.3926C11.3242 36.3926 4.07812 29.1465 4.07812 20.2402C4.07812 11.334 11.3242 4.07812 20.2402 4.07812C29.1465 4.07812 36.4023 11.334 36.4023 20.2402C36.4023 29.1465 29.1465 36.3926 20.2402 36.3926Z" fill="black"/>
</svg>
