<svg width="26" height="26" viewBox="0 0 26 26" fill="none" xmlns="http://www.w3.org/2000/svg">
<path fill-rule="evenodd" clip-rule="evenodd" d="M0 11.8184H11.8181V0H0V11.8184ZM2.36345 2.36345H9.45444V9.45444H2.36345V2.36345ZM0 25.9998H11.8181V14.1815H0V25.9998ZM2.36345 16.5454H9.45444V23.618H2.36345V16.5454ZM7.09087 18.9088H4.72729V21.2727H7.09087V18.9088ZM18.9087 23.6364H21.2729V26H18.9087V23.6364ZM26.0001 23.6364H23.636V26H26.0001V23.6364ZM21.2728 16.5454H23.6363V14.1815H25.9999V21.2727H18.9087V18.9088H16.5455V25.9998H14.1816V14.1815H21.2728V16.5454ZM4.72729 4.72722H7.09087V7.09099H4.72729V4.72722ZM14.1816 0V11.8184H26.0001V0H14.1816ZM23.6363 9.45444H16.5455V2.36345H23.6363V9.45444ZM18.9087 4.72722H21.2729V7.09099H18.9087V4.72722Z" fill="url(#paint0_linear)"/>
<defs>
<linearGradient id="paint0_linear" x1="22.5" y1="2.5" x2="5.5" y2="21" gradientUnits="userSpaceOnUse">
<stop stop-color="#A3A8B5"/>
<stop offset="1" stop-color="#858A95"/>
</linearGradient>
</defs>
</svg>
