<svg width="17" height="17" viewBox="0 0 17 17" fill="none" xmlns="http://www.w3.org/2000/svg">
<path d="M16.535 7.49291C16.4799 7.14756 16.1552 6.91229 15.8099 6.96739C15.4645 7.02248 15.2292 7.34713 15.2843 7.69249C15.2849 7.69627 15.2856 7.70002 15.2862 7.70377C15.9311 11.4998 13.3766 15.0998 9.58052 15.7446C5.78449 16.3895 2.18448 13.835 1.53963 10.0389C0.894786 6.24292 3.44935 2.64291 7.24534 1.99806C9.57982 1.60151 11.956 2.41695 13.555 4.16342L10.7499 5.09804C10.418 5.20845 10.2385 5.56694 10.3489 5.89879C10.349 5.89886 10.349 5.89897 10.349 5.89905C10.4595 6.2309 10.8179 6.41036 11.1498 6.29998C11.1499 6.29994 11.15 6.29991 11.15 6.29991L14.9494 5.03348C15.2081 4.94732 15.3826 4.70523 15.3825 4.43256V0.633234C15.3825 0.283503 15.099 0 14.7493 0C14.3996 0 14.116 0.283503 14.116 0.633234V2.94637C10.855 -0.155275 5.69701 -0.026046 2.59536 3.23499C-0.506291 6.49603 -0.377099 11.654 2.88398 14.7557C6.14506 17.8574 11.303 17.7282 14.4047 14.4671C16.1734 12.6075 16.9627 10.0234 16.535 7.49291Z" fill="#007BFF"/>
</svg>
