<svg width="24" height="26" viewBox="0 0 24 26" fill="none" xmlns="http://www.w3.org/2000/svg">
<path d="M22.378 8.78953H14.7278C16.3735 8.25119 18.092 7.12348 18.7549 6.46063C20.2338 4.9818 20.2339 2.58814 18.7549 1.1092C17.2762 -0.369678 14.8825 -0.369792 13.4035 1.1092C12.9667 1.54602 12.4522 2.2793 12.0003 3.08523C11.5484 2.2793 11.0338 1.54602 10.597 1.1092C9.1181 -0.369621 6.72456 -0.369735 5.24556 1.1092C3.76668 2.58809 3.76657 4.98163 5.24556 6.46063C5.90847 7.12354 7.62696 8.25125 9.27281 8.78959H1.62233C1.07854 8.78959 0.637695 9.23043 0.637695 9.77423V14.3185C0.637695 14.8623 1.07854 15.3032 1.62233 15.3032H2.59164V25.0154C2.59164 25.5592 3.03249 26 3.57628 26H9.55793C9.55793 25.8658 9.55793 8.94798 9.55793 8.78953H11.8279H14.4424C14.4424 8.94872 14.4424 25.8687 14.4424 26H20.424C20.9678 26 21.4087 25.5592 21.4087 25.0154V15.3032H22.378C22.9218 15.3032 23.3626 14.8623 23.3626 14.3185V9.77423C23.3627 9.23038 22.9219 8.78953 22.378 8.78953ZM6.95128 4.75491C6.41515 4.21878 6.41504 3.35111 6.95128 2.81487C7.48741 2.27874 8.35514 2.27868 8.89132 2.81487C9.20919 3.13273 9.79129 3.98377 10.244 4.93493C10.5793 5.6391 10.7755 6.60767 10.7734 6.67345C9.69157 6.57419 7.62759 5.43127 6.95128 4.75491ZM13.187 6.67736C13.2325 6.1422 13.5246 5.42202 13.7564 4.93493C14.2092 3.98377 14.7913 3.13273 15.1091 2.81487C15.6452 2.27874 16.513 2.27868 17.0492 2.81487C17.5853 3.35105 17.5853 4.21867 17.0491 4.75491C16.3603 5.44387 14.251 6.60376 13.187 6.67736Z" fill="url(#paint0_linear)"/>
<defs>
<linearGradient id="paint0_linear" x1="5.50024" y1="24.5" x2="15.5002" y2="2" gradientUnits="userSpaceOnUse">
<stop stop-color="#1D8FF5"/>
<stop offset="1" stop-color="#1ABFFB"/>
</linearGradient>
</defs>
</svg>
