<svg width="28" height="26" viewBox="0 0 28 26" fill="none" xmlns="http://www.w3.org/2000/svg">
<path fill-rule="evenodd" clip-rule="evenodd" d="M18.811 0.220253C20.0815 -0.199505 21.4517 0.490158 21.8715 1.76067L22.4029 3.36929H9.2793L18.811 0.220253ZM20.5597 20.0039C19.218 20.0038 18.1264 18.9123 18.1264 17.5706V13.5296C18.1264 12.1879 19.218 11.0963 20.5597 11.0963H26.9C26.9385 11.0963 26.9766 11.0975 27.0146 11.0992V7.07372C27.0146 6.03751 26.1746 5.19751 25.1384 5.19751H1.87627C0.840004 5.19744 0 6.03745 0 7.07365V24.0265C0 25.0627 0.840004 25.9027 1.87627 25.9027H25.1384C26.1746 25.9027 27.0146 25.0627 27.0146 24.0265V20.001C26.9766 20.0027 26.9385 20.0039 26.9 20.0039H20.5597ZM26.9 12.4296H20.5597C19.9522 12.4296 19.4597 12.9221 19.4597 13.5296V17.5706C19.4597 18.1781 19.9522 18.6705 20.5597 18.6705H26.9C27.5075 18.6705 28 18.1781 28 17.5706V13.5296C28 12.9221 27.5075 12.4296 26.9 12.4296ZM22.7444 17.1376C21.8676 17.1376 21.1568 16.4269 21.1568 15.55C21.1568 14.6732 21.8676 13.9624 22.7444 13.9624C23.6213 13.9624 24.3321 14.6732 24.3321 15.55C24.3321 16.4269 23.6213 17.1376 22.7444 17.1376Z" fill="url(#paint0_linear)"/>
<defs>
<linearGradient id="paint0_linear" x1="16" y1="4" x2="3" y2="26" gradientUnits="userSpaceOnUse">
<stop stop-color="#FF5C9F"/>
<stop offset="1" stop-color="#FF3126"/>
</linearGradient>
</defs>
</svg>
