<svg width="51" height="51" viewBox="0 0 51 51" fill="none" xmlns="http://www.w3.org/2000/svg">
<path d="M0 50.9996H23.1817V27.8176H0V50.9996ZM4.63599 32.4544H18.5452V46.3276H4.63599V32.4544Z" fill="white"/>
<path d="M13.909 37.0904H9.27271V41.7272H13.909V37.0904Z" fill="white"/>
<path d="M41.7275 46.3636H37.0901V51H41.7275V46.3636Z" fill="white"/>
<path d="M51 46.3636H46.3627V51H51V46.3636Z" fill="white"/>
<path d="M46.3634 32.4544H41.7274V27.8176H27.8177V50.9996H32.4545V37.0904H37.0901V41.7272H50.9997V27.8176H46.3634V32.4544Z" fill="white"/>
<path d="M0 23.1823H23.1817V0H0V23.1823ZM4.63599 4.63599H18.5452V18.5452H4.63599V4.63599Z" fill="white"/>
<path d="M13.909 9.27261H9.27271V13.9092H13.909V9.27261Z" fill="white"/>
<path d="M27.8177 0V23.1823H51.0001V0H27.8177ZM46.3634 18.5452H32.4545V4.63599H46.3634V18.5452Z" fill="white"/>
<path d="M41.7275 9.27261H37.0901V13.9092H41.7275V9.27261Z" fill="white"/>
</svg>
