<svg width="9" height="11" viewBox="0 0 9 11" fill="none" xmlns="http://www.w3.org/2000/svg">
<path d="M4.49973 0C2.26692 0 0.450195 1.81673 0.450195 4.04976C0.450195 4.63222 0.569412 5.18834 0.804355 5.7028C1.81685 7.91838 3.75809 10.2576 4.32907 10.9216C4.37184 10.9713 4.43421 10.9999 4.49984 10.9999C4.56547 10.9999 4.62784 10.9713 4.67062 10.9216C5.24137 10.2577 7.18261 7.91861 8.19544 5.7028C8.4305 5.18834 8.5496 4.63222 8.5496 4.04976C8.54937 1.81673 6.73265 0 4.49973 0ZM4.49973 6.15321C3.33987 6.15321 2.39616 5.2095 2.39616 4.04965C2.39616 2.88968 3.33987 1.94596 4.49973 1.94596C5.65958 1.94596 6.6033 2.88968 6.6033 4.04965C6.60341 5.2095 5.6597 6.15321 4.49973 6.15321Z" fill="#8A8A8F"/>
</svg>
