<?xml version="1.0" encoding="utf-8"?>
<!-- Generator: Adobe Illustrator 21.1.0, SVG Export Plug-In . SVG Version: 6.00 Build 0)  -->
<svg version="1.1" id="Layer_1" xmlns="http://www.w3.org/2000/svg" xmlns:xlink="http://www.w3.org/1999/xlink" x="0px" y="0px"
	 viewBox="0 0 12 13" style="enable-background:new 0 0 12 13;" xml:space="preserve">
<style type="text/css">
	.st0{fill:#FFFFFF;}
</style>
<path class="st0" d="M5.6,2.2C6.3,2.7,6.9,3.4,7,4.3c0.3,0.1,0.6,0.2,1,0.2c1.3,0,2.4-1,2.4-2.3C10.3,1,9.3,0,8,0
	C6.7,0,5.6,1,5.6,2.2z M4,6.9c1.3,0,2.4-1,2.4-2.3S5.3,2.3,4,2.3s-2.4,1-2.4,2.3C1.7,5.9,2.7,6.9,4,6.9z M5,7H3C1.4,7,0,8.3,0,9.9
	v2.4l0,0l0.2,0.1c1.6,0.5,3,0.6,4.1,0.6c2.2,0,3.5-0.6,3.6-0.6l0.2-0.1h0V9.9C8.1,8.3,6.7,7,5,7z M9,4.7H7c0,0.8-0.4,1.5-0.9,1.9
	c1.5,0.4,2.6,1.7,2.6,3.3v0.7c2-0.1,3.1-0.6,3.2-0.6L12,9.9h0V7.6C12,6,10.6,4.7,9,4.7z"/>
</svg>
