<svg width="38" height="32" viewBox="0 0 38 32" fill="none" xmlns="http://www.w3.org/2000/svg">
<path d="M22.9314 5.49914C24.6884 6.60077 25.9204 8.46497 26.1447 10.6289C26.8613 10.9637 27.6566 11.1562 28.4998 11.1562C31.578 11.1562 34.0729 8.6613 34.0729 5.58355C34.0729 2.50533 31.578 0.0104065 28.4998 0.0104065C25.4509 0.011355 22.9778 2.4617 22.9314 5.49914ZM19.2803 16.91C22.3585 16.91 24.8534 14.4146 24.8534 11.3369C24.8534 8.25915 22.358 5.76423 19.2803 5.76423C16.2025 5.76423 13.7062 8.25963 13.7062 11.3374C13.7062 14.4151 16.2025 16.91 19.2803 16.91ZM21.6443 17.2899H16.9153C12.9806 17.2899 9.77956 20.4914 9.77956 24.4261V30.2093L9.79426 30.2999L10.1926 30.4246C13.9476 31.5979 17.2098 31.9891 19.8949 31.9891C25.1394 31.9891 28.1792 30.4939 28.3665 30.3986L28.7388 30.2103H28.7786V24.4261C28.78 20.4914 25.579 17.2899 21.6443 17.2899ZM30.8647 11.5366H26.1722C26.1215 13.414 25.3201 15.1047 24.0524 16.3206C27.5499 17.3606 30.1088 20.6038 30.1088 24.4346V26.2168C34.742 26.047 37.412 24.7339 37.5879 24.6457L37.9602 24.4569H38V18.6718C38 14.7376 34.799 11.5366 30.8647 11.5366ZM9.50119 11.1572C10.5914 11.1572 11.6058 10.839 12.4651 10.2969C12.7383 8.51523 13.6934 6.95834 15.0577 5.89796C15.0634 5.79363 15.0734 5.69025 15.0734 5.58497C15.0734 2.50675 12.578 0.0118291 9.50119 0.0118291C6.42249 0.0118291 3.92804 2.50675 3.92804 5.58497C3.92804 8.66177 6.42249 11.1572 9.50119 11.1572ZM14.5062 16.3206C13.2448 15.1108 12.4462 13.4292 12.3878 11.5631C12.2138 11.5503 12.0416 11.5366 11.8643 11.5366H7.13573C3.20105 11.5366 0 14.7376 0 18.6718V24.456L0.0147011 24.5451L0.413054 24.6708C3.42536 25.6112 6.11377 26.0446 8.44887 26.1812V24.4346C8.44982 20.6038 11.0078 17.3615 14.5062 16.3206Z" fill="black"/>
</svg>
