<svg width="12" height="13" viewBox="0 0 12 13" fill="none" xmlns="http://www.w3.org/2000/svg">
<path d="M5.59246 2.23128C6.33958 2.67912 6.86348 3.43695 6.95886 4.31663C7.26356 4.45273 7.60173 4.531 7.96027 4.531C9.26921 4.531 10.3301 3.51677 10.3301 2.2656C10.3301 1.01424 9.26921 0 7.96027 0C6.66384 0.000385568 5.61222 0.9965 5.59246 2.23128ZM4.03993 6.87005C5.34886 6.87005 6.40976 5.85562 6.40976 4.60445C6.40976 3.35328 5.34866 2.33905 4.03993 2.33905C2.7312 2.33905 1.66969 3.35348 1.66969 4.60464C1.66969 5.85581 2.7312 6.87005 4.03993 6.87005ZM5.04517 7.02447H3.03428C1.36116 7.02447 0 8.32595 0 9.92548V12.2765L0.006251 12.3133L0.17564 12.364C1.77233 12.841 3.15951 13 4.30127 13C6.53136 13 7.82396 12.3922 7.90361 12.3534L8.06191 12.2769H8.07885V9.92548C8.07945 8.32595 6.71829 7.02447 5.04517 7.02447ZM8.96592 4.68561H6.97056C6.94898 5.44885 6.60819 6.13612 6.06917 6.63042C7.55636 7.05319 8.64449 8.37164 8.64449 9.92895V10.6534C10.6146 10.5844 11.75 10.0506 11.8248 10.0147L11.9831 9.93801H12V7.58624C12 5.98691 10.6388 4.68561 8.96592 4.68561Z" fill="black"/>
</svg>
