<svg width="46" height="30" viewBox="0 0 46 30" fill="none" xmlns="http://www.w3.org/2000/svg">
<path fill-rule="evenodd" clip-rule="evenodd" d="M2.74958 0.719238H43.2504C44.7655 0.719238 46 1.95369 46 3.46882V12.9261H19.831C20.3952 12.6143 20.883 12.2731 21.2393 11.9167C23.355 9.80109 23.355 6.37158 21.2393 4.25603C19.1237 2.14039 15.6942 2.14039 13.5785 4.25612C13.1258 4.70884 12.6973 5.37386 12.3227 6.13798C11.9481 5.37386 11.5196 4.70884 11.0669 4.25612C8.95122 2.14048 5.5218 2.14048 3.40616 4.25612C1.29061 6.37167 1.29052 9.80118 3.40616 11.9168C3.76248 12.2731 4.25042 12.6144 4.81446 12.9262H0V3.46882C0 1.95378 1.23445 0.719238 2.74958 0.719238ZM46 15.7541H16.1821L18.201 17.8718C18.7378 18.4361 18.7156 19.3288 18.1513 19.8656C17.587 20.4024 16.6943 20.3802 16.1575 19.8159L13.482 17.0095V29.2807H43.2504C44.7655 29.2807 46 28.0463 46 26.5312V15.7541ZM10.6542 29.2807H2.74958C1.23445 29.2807 0 28.0463 0 26.5312V15.7541H8.10166L6.32985 17.477C5.77165 18.0199 5.75934 18.9127 6.30227 19.4709C6.8452 20.0291 7.73797 20.0414 8.29617 19.4985L10.6542 17.2054V29.2807ZM10.9626 11.8685C10.8734 10.268 10.1668 7.35483 9.06748 6.25541C7.4423 4.63023 4.64735 5.78418 4.64735 8.08634C4.64735 8.74911 4.84977 9.46777 5.40554 9.91726C7.13054 11.3124 10.0009 12.0505 10.9626 11.8685ZM13.6828 11.8685C14.6444 12.0506 18.4811 10.6761 19.24 9.91735C20.865 8.29226 19.7112 5.49722 17.409 5.49722C16.7462 5.49722 16.0836 5.75004 15.5781 6.25541C14.4251 7.40829 13.7739 10.2324 13.6828 11.8685Z" fill="black"/>
</svg>
