<svg width="30" height="28" viewBox="0 0 30 28" fill="none" xmlns="http://www.w3.org/2000/svg">
<path d="M25.1562 2.91676H23.3332V1.45824C23.3332 0.65342 22.6814 0 21.875 0C21.0686 0 20.4168 0.65342 20.4168 1.45824V2.91676H8.75V1.45824C8.75 0.65342 8.09818 0 7.29176 0C6.48533 0 5.83324 0.65342 5.83324 1.45824V2.91676H4.01051C1.79817 2.91676 0 4.71466 0 6.92699V23.3332C0 25.7453 1.96293 27.7082 4.375 27.7082H11.6668C12.4732 27.7082 13.125 27.0551 13.125 26.25C13.125 25.4449 12.4732 24.7918 11.6668 24.7918H4.375C3.56991 24.7918 2.91676 24.137 2.91676 23.3332V11.6668H26.25C26.25 12.4716 26.9018 13.125 27.7082 13.125C28.5147 13.125 29.1668 12.4716 29.1668 11.6668V6.92699C29.1668 4.71466 27.3686 2.91676 25.1562 2.91676V2.91676Z" fill="black"/>
</svg>
