<svg width="37" height="37" viewBox="0 0 37 37" fill="none" xmlns="http://www.w3.org/2000/svg">
<path d="M36.1969 16.8404C36.9251 16.1306 37.1822 15.0889 36.8681 14.1206C36.5532 13.1522 35.7331 12.461 34.7254 12.3143L25.7666 11.0126C25.3851 10.957 25.0554 10.7177 24.885 10.3717L20.8797 2.25451C20.43 1.34248 19.5172 0.775696 18.5 0.775696C17.4835 0.775696 16.5707 1.34248 16.121 2.25451L12.115 10.3724C11.9446 10.7184 11.6142 10.9577 11.2326 11.0133L2.27377 12.315C1.2669 12.461 0.445992 13.153 0.131114 14.1213C-0.183023 15.0897 0.0740657 16.1314 0.80236 16.8411L7.2844 23.1594C7.56075 23.4291 7.68744 23.8173 7.62224 24.1967L6.09305 33.1185C5.95747 33.9038 6.16343 34.6677 6.67168 35.27C7.46147 36.2087 8.84027 36.4947 9.94271 35.9153L17.9547 31.7026C18.2896 31.527 18.7111 31.5285 19.0453 31.7026L27.058 35.9153C27.4477 36.1206 27.8633 36.2243 28.2923 36.2243C29.0754 36.2243 29.8178 35.8761 30.3283 35.27C30.8373 34.6677 31.0425 33.9023 30.9069 33.1185L29.377 24.1967C29.3118 23.8166 29.4385 23.4291 29.7148 23.1594L36.1969 16.8404Z" fill="black"/>
</svg>
