<svg width="35" height="35" viewBox="0 0 35 35" fill="none" xmlns="http://www.w3.org/2000/svg">
<path d="M25.1562 2.91676H23.3332V1.45824C23.3332 0.65342 22.6814 0 21.875 0C21.0686 0 20.4168 0.65342 20.4168 1.45824V2.91676H8.75V1.45824C8.75 0.65342 8.09818 0 7.29176 0C6.48533 0 5.83324 0.65342 5.83324 1.45824V2.91676H4.01051C1.79817 2.91676 0 4.71466 0 6.92699V23.3332C0 25.7453 1.96293 27.7082 4.375 27.7082H11.6668C12.4732 27.7082 13.125 27.0551 13.125 26.25C13.125 25.4449 12.4732 24.7918 11.6668 24.7918H4.375C3.56991 24.7918 2.91676 24.137 2.91676 23.3332V11.6668H26.25C26.25 12.4716 26.9018 13.125 27.7082 13.125C28.5147 13.125 29.1668 12.4716 29.1668 11.6668V6.92699C29.1668 4.71466 27.3686 2.91676 25.1562 2.91676Z" fill="white"/>
<path d="M25.5207 16.0417C20.2942 16.0417 16.0417 20.2942 16.0417 25.5207C16.0417 30.7476 20.2942 35 25.5207 35C30.7476 35 35 30.7476 35 25.5207C35 20.2942 30.7476 16.0417 25.5207 16.0417ZM29.1667 26.9792H26.9792V29.1667C26.9792 29.9716 26.3258 30.625 25.5207 30.625C24.7159 30.625 24.0625 29.9716 24.0625 29.1667V26.9792H21.875C21.0699 26.9792 20.4167 26.3258 20.4167 25.5207C20.4167 24.7159 21.0699 24.0625 21.875 24.0625H24.0625V21.875C24.0625 21.0699 24.7159 20.4167 25.5207 20.4167C26.3258 20.4167 26.9792 21.0699 26.9792 21.875V24.0625H29.1667C29.9716 24.0625 30.625 24.7159 30.625 25.5207C30.625 26.3258 29.9716 26.9792 29.1667 26.9792Z" fill="white"/>
</svg>
