<svg id="Capa_1" data-name="Capa 1" xmlns="http://www.w3.org/2000/svg" viewBox="0 0 306.77 296.99"><defs><style>.cls-1{fill:#fff;}</style></defs><title>house-black-silhouette-without-door (1)</title><path class="cls-1" d="M301.73,128.86L164.63,8.9a17.09,17.09,0,0,0-22.29.26L4.77,135.26a14.54,14.54,0,0,0-.66,20.9l3.45,3.59c5.72,6,15,6.66,20.65,1.58l10.28-9.21V286.92a15,15,0,0,0,15,15H261.32a15,15,0,0,0,15-15V154l6.34,5.57c3.5,3.07,10.84.61,16.4-5.51l3.9-4.28A14.63,14.63,0,0,0,301.73,128.86Zm-125,86.29a5.67,5.67,0,0,1,0,8l-3.39,3.39a5.68,5.68,0,0,1-8,0l-46.1-46.1a5.72,5.72,0,0,1,0-8l46.14-46.14a5.68,5.68,0,0,1,8,0l3.4,3.39a5.68,5.68,0,0,1,0,8L138,176.45Z" transform="translate(0 -4.89)"/></svg>