<svg width="30" height="30" viewBox="0 0 30 30" fill="none" xmlns="http://www.w3.org/2000/svg">
<path d="M19.3151 15.4795C19.0411 15.2055 19.0411 14.7945 19.3151 14.5205L29.589 4.24658C29.863 3.9726 30 3.56164 30 3.28767C30 3.0137 29.863 2.60274 29.589 2.32877L27.6712 0.410959C27.3973 0.136986 26.9863 0 26.7123 0C26.3014 0 26.0274 0.136986 25.7534 0.410959L15.4795 10.6849C15.2055 10.9589 14.7945 10.9589 14.5205 10.6849L4.24658 0.410959C3.9726 0.136986 3.56164 0 3.28767 0C3.0137 0 2.60274 0.136986 2.32877 0.410959L0.410959 2.32877C0.136986 2.60274 0 3.0137 0 3.28767C0 3.56164 0.136986 3.9726 0.410959 4.24658L10.6849 14.5205C10.9589 14.7945 10.9589 15.2055 10.6849 15.4795L0.410959 25.7534C0.136986 26.0274 0 26.4384 0 26.7123C0 26.9863 0.136986 27.3973 0.410959 27.6712L2.32877 29.589C2.60274 29.863 3.0137 30 3.28767 30C3.56164 30 3.9726 29.863 4.24658 29.589L14.5205 19.3151C14.7945 19.0411 15.2055 19.0411 15.4795 19.3151L25.7534 29.589C26.0274 29.863 26.4384 30 26.7123 30C26.9863 30 27.3973 29.863 27.6712 29.589L29.589 27.6712C29.863 27.3973 30 26.9863 30 26.7123C30 26.4384 29.863 26.0274 29.589 25.7534L19.3151 15.4795Z" fill="#353535" fill-opacity="0.95"/>
</svg>
