<svg width="20" height="18" viewBox="0 0 20 18" fill="none" xmlns="http://www.w3.org/2000/svg">
<path d="M18.8656 8.77537C18.5564 8.77537 18.3091 9.02268 18.3091 9.33181V14.3934C18.3091 15.7701 17.188 16.8871 15.8154 16.8871H3.60659C2.22991 16.8871 1.11289 15.766 1.11289 14.3934V9.24938C1.11289 8.94024 0.865583 8.69293 0.556446 8.69293C0.247309 8.69293 0 8.94024 0 9.24938V14.3934C0 16.3843 1.61988 18 3.60659 18H15.8154C17.8063 18 19.422 16.3801 19.422 14.3934V9.33181C19.422 9.0268 19.1747 8.77537 18.8656 8.77537Z" fill="black"/>
<path d="M9.31948 13.5814C9.42665 13.6886 9.57091 13.7463 9.71105 13.7463C9.85119 13.7463 9.99546 13.6927 10.1026 13.5814L13.6391 10.0449C13.8576 9.82642 13.8576 9.47607 13.6391 9.25761C13.4207 9.03916 13.0703 9.03916 12.8519 9.25761L10.2675 11.8461V0.556446C10.2675 0.247309 10.0202 0 9.71105 0C9.40191 0 9.15461 0.247309 9.15461 0.556446V11.8461L6.5661 9.25761C6.34764 9.03916 5.99729 9.03916 5.77883 9.25761C5.56038 9.47607 5.56038 9.82642 5.77883 10.0449L9.31948 13.5814Z" fill="black"/>
</svg>
