<?xml version="1.0" encoding="utf-8"?>
<!-- Generator: Adobe Illustrator 19.2.0, SVG Export Plug-In . SVG Version: 6.00 Build 0)  -->
<svg version="1.1" id="Layer_1" xmlns="http://www.w3.org/2000/svg" xmlns:xlink="http://www.w3.org/1999/xlink" x="0px" y="0px"
	 width="424.7px" height="512px" viewBox="0 0 424.7 512" style="enable-background:new 0 0 424.7 512;" xml:space="preserve">
<style type="text/css">
	.st0{fill:#3D3D3D;}
</style>
<path class="st0" d="M362.5,62.1C322.4,22.1,269,0,212.3,0s-110,22.1-150.1,62.1C22.1,102.2,0,155.4,0,212.1s22.1,109.9,62.2,150
	L212.3,512l150.1-149.9c40.1-40.1,62.2-93.3,62.2-150S402.6,102.2,362.5,62.1z M287.8,313.9l-75.4-39.6l-75.4,39.6l14.4-84l-61-59.5
	l84.3-12.3l37.7-76.4l37.7,76.4l84.3,12.3l-61,59.5L287.8,313.9z"/>
<path class="st0" d="M230.1,185.7l-17.8-36l-17.8,36l-39.7,5.8l28.7,28l-6.8,39.5l35.5-18.7l35.5,18.7l-6.8-39.5l28.7-28
	L230.1,185.7z"/>
</svg>
