<?xml version="1.0" encoding="utf-8"?>
<!-- Generator: Adobe Illustrator 22.0.0, SVG Export Plug-In . SVG Version: 6.00 Build 0)  -->
<svg version="1.1" id="Layer_1" xmlns="http://www.w3.org/2000/svg" xmlns:xlink="http://www.w3.org/1999/xlink" x="0px" y="0px"
	 viewBox="0 0 50 50" style="enable-background:new 0 0 50 50;" xml:space="preserve">
<path d="M22,3.7c1.7-1.8,3.6-1.8,5.3,0l21.4,21.1c2.1,2.1,1.4,4.4-0.9,4.4h-7.3v15.2c0,1.6-0.8,2.5-2.6,2.6H12.2
	c-1.4,0-2.1-0.7-2.1-2.1V29H2.1c-2.6,0.1-2.7-2.8-0.9-4.4L22,3.7z M23.5,9.3L9.8,23c-0.9,0.9-0.2,1.1,0,1.1h4.5v18h7.1v-7v-0.5h7.2
	v7.4h7v-18h4.7c1,0,0.6-0.7,0-1.3L26.1,9.3C24.9,8.2,24.6,8.2,23.5,9.3z"/>
</svg>
