<svg id="Layer_1" data-name="Layer 1" xmlns="http://www.w3.org/2000/svg" viewBox="0 0 26 26"><defs><style>.cls-1{fill:#09bb07;}.cls-2{fill:#fff;}</style></defs><title>Chat-01-01</title><circle class="cls-1" cx="13" cy="13" r="13"/><path class="cls-2" d="M11,5.89c-3.37,0-6.1,2.27-6.1,5.08A4.81,4.81,0,0,0,7.2,15l-0.8,1.59,2.2-.92a6.92,6.92,0,0,0,1.47.37A4.25,4.25,0,0,1,9.95,15c0-2.81,2.74-5.08,6.1-5.08a7.37,7.37,0,0,1,.87.06C16.42,7.67,13.94,5.89,11,5.89Z"/><path class="cls-2" d="M21.13,15c0-2.24-2.27-4.06-5.08-4.06S11,12.79,11,15s2.27,4.07,5.08,4.07a6.2,6.2,0,0,0,1.31-.16l2.74,1.17-0.92-1.88A3.83,3.83,0,0,0,21.13,15Z"/></svg>