<svg width="30" height="30" viewBox="0 0 30 30" fill="none" xmlns="http://www.w3.org/2000/svg">
<path d="M15 1.2C7.38559 1.2 1.20001 7.38557 1.20001 15C1.20001 22.6144 7.38559 28.8 15 28.8C22.6144 28.8 28.8 22.6144 28.8 15C28.8 7.38557 22.6144 1.2 15 1.2ZM15 2.4C21.9659 2.4 27.6 8.0341 27.6 15C27.6 21.9659 21.9659 27.6 15 27.6C8.03412 27.6 2.40001 21.9659 2.40001 15C2.40001 8.0341 8.03412 2.4 15 2.4ZM14.4 7.8V14.4H7.80001V15.6H14.4V22.2H15.6V15.6H22.2V14.4H15.6V7.8H14.4Z" fill="#EF5668"/>
</svg>
