<svg xmlns="http://www.w3.org/2000/svg" width="33.627" height="33.646" viewBox="0 0 33.627 33.646">
  <defs>
    <style>
      .cls-1, .cls-3 {
        fill: none;
        stroke: #000;
        stroke-miterlimit: 22.926;
      }

      .cls-1, .cls-2 {
        fill-rule: evenodd;
      }

      .cls-2 {
        fill: #ffb2b2;
      }
    </style>
  </defs>
  <g id="Слой_x0020_1" transform="translate(-0.93 -0.914)">
    <g id="_1286429417968" transform="translate(1.43 1.412)">
      <path id="Path_53" data-name="Path 53" class="cls-1" d="M39.983,19.417a5.594,5.594,0,0,1,1.163-1.407c.555-.565,1.285-1.34,2.137-2.082s1.827-1.452,2.891-2.5A32.275,32.275,0,0,0,49.111,10a6.908,6.908,0,0,0,1.251-2.327c.245-.8.443-1.84.62-2.692a20.085,20.085,0,0,1,.511-2.061,3.308,3.308,0,0,1,.6-1.2,1.037,1.037,0,0,1,.743-.3,1.459,1.459,0,0,1,.941.188,3.137,3.137,0,0,1,1.074,1.241,6.751,6.751,0,0,1,.665,2.161,7.278,7.278,0,0,1-.078,2.239,14.484,14.484,0,0,1-.587,2.27c-.232.654-.477,1.118-.675,1.6a5.163,5.163,0,0,0-.4,1.384,2.345,2.345,0,0,0,.143,1.1,1.275,1.275,0,0,0,.7.787,6.01,6.01,0,0,0,2.061.276c1.042.034,2.5.034,3.623.1a5.867,5.867,0,0,1,2.492.532A2.618,2.618,0,0,1,64,16.708a2.113,2.113,0,0,1-.089,1.606,2.374,2.374,0,0,1-.985,1.019,1.185,1.185,0,0,1-.665.122c-.089,0-.021.044.2.226a6.276,6.276,0,0,1,.852.831,2.29,2.29,0,0,1,.5,1.118,2.094,2.094,0,0,1-.186,1.359,2.211,2.211,0,0,1-1.03.787c-.354.156-.62.222-.709.276s0,.1.243.276a7.532,7.532,0,0,1,.909.764,1.242,1.242,0,0,1,.409.909,4.309,4.309,0,0,1-.232,1.319,1.9,1.9,0,0,1-.565.909,2.934,2.934,0,0,1-.964.555,1.234,1.234,0,0,1-.532.044c-.068,0-.021.044.156.133a5.409,5.409,0,0,1,.753.409,1.253,1.253,0,0,1,.555.774,2.68,2.68,0,0,1-.156,1.22,2.72,2.72,0,0,1-.7,1.23,4.124,4.124,0,0,1-1.785.93,16.252,16.252,0,0,1-2.891.422,30.51,30.51,0,0,1-3.912.089,52.574,52.574,0,0,1-5.452-.542,41.452,41.452,0,0,1-4.642-.985c-1.3-.354-2.338-.709-2.891-.907s-.62-.245-.644-1.96,0-5.108.055-7.112a8.045,8.045,0,0,1,.378-3.114Z" transform="translate(-31.497 -1.412)"/>
      <path id="Path_54" data-name="Path 54" class="cls-2" d="M73.435,88.336a2.411,2.411,0,0,0-.848-.937,3.409,3.409,0,0,0-1.468-.477,2.757,2.757,0,0,0-2.437.914,2.238,2.238,0,0,0-.559,1.158,5.894,5.894,0,0,0-.051,1.95,3.783,3.783,0,0,0,.836,1.823A14.837,14.837,0,0,0,70.785,94.6c.7.6,1.414,1.179,1.861,1.506s.637.405.852.4a2.258,2.258,0,0,0,1.057-.466,19.285,19.285,0,0,0,2.293-1.673,9.391,9.391,0,0,0,1.633-1.827,3.661,3.661,0,0,0,.644-1.534,5.586,5.586,0,0,0,0-1.779,2.664,2.664,0,0,0-.542-1.2,3.3,3.3,0,0,0-.964-.92,2.605,2.605,0,0,0-1.175-.266,4.276,4.276,0,0,0-1.141.078,1.854,1.854,0,0,0-1.042.587,5.583,5.583,0,0,0-.648,1.08c-.1.188-.055.023-.184-.255Z" transform="translate(-53.965 -68.814)"/>
      <rect id="Rectangle_60" data-name="Rectangle 60" class="cls-3" width="8.176" height="15.955" rx="3.47" transform="translate(0 15.777)"/>
      <circle id="Ellipse_27" data-name="Ellipse 27" class="cls-3" cx="1.196" cy="1.196" r="1.196" transform="translate(3.256 26.78)"/>
    </g>
  </g>
</svg>
