<svg id="Layer_1" data-name="Layer 1" xmlns="http://www.w3.org/2000/svg" viewBox="0 0 322.41 322.41"><defs><style>.cls-1{fill:#fff;}</style></defs><title>Moments</title><path class="cls-1" d="M216.38,119L106.05,9.92S128,0,161.21,0s55.16,8.64,55.16,8.64V119Z"/><path class="cls-1" d="M230.08,170.35L229.19,15.21s22.53,8.54,46,32,32.9,45.12,32.9,45.12l-78,78h0Z"/><path class="cls-1" d="M203.45,216.38L312.51,106.05s9.9,22,9.9,55.16-8.64,55.16-8.64,55.16H203.45Z"/><path class="cls-1" d="M152.07,230.08l155.14-.89s-8.54,22.53-32,46-45.12,32.9-45.12,32.9l-78-78h0Z"/><path class="cls-1" d="M106.05,203.45L216.38,312.51s-22,9.9-55.16,9.9-55.16-8.64-55.16-8.64V203.44h0Z"/><path class="cls-1" d="M92.33,152.07l0.9,155.14s-22.53-8.54-46-32-32.9-45.12-32.9-45.12l78-78h0Z"/><path class="cls-1" d="M119,106.05L9.92,216.38S0,194.41,0,161.21s8.64-55.16,8.64-55.16H119Z"/><path class="cls-1" d="M170.35,92.33l-155.14.9s8.54-22.53,32-46,45.12-32.9,45.12-32.9l78,78h0Z"/></svg>