<?xml version="1.0" encoding="utf-8"?>
<!-- Generator: Adobe Illustrator 22.0.0, SVG Export Plug-In . SVG Version: 6.00 Build 0)  -->
<svg version="1.1" id="Capa_1" xmlns="http://www.w3.org/2000/svg" xmlns:xlink="http://www.w3.org/1999/xlink" x="0px" y="0px"
	 viewBox="0 0 29.7 29.7" style="enable-background:new 0 0 29.7 29.7;" xml:space="preserve">
<style type="text/css">
	.st0{fill:#6E7277;}
</style>
<path class="st0" d="M8.3,0.8L4,4.8C2.9,5.8,3.3,7,4,8.3c3.4,8.6,9.2,15.2,16.7,20.4c0.9,0.8,1.7,0.8,2.6,0l4.1-3.8
	c0.4-0.5,0.4-1,0-1.5l-4.3-3.8c-0.4-0.4-0.9-0.5-1.4,0l-1.9,1.9c-0.5,0.2-1,0.3-1.4-0.1C15,18.3,12.2,14.8,9.7,11
	c-0.2-0.6-0.3-1.2,0-1.6l2.9-1.9c0.4-0.3,0.3-0.8,0-1.3L9.9,0.8C9.4,0.4,8.8,0.4,8.3,0.8z"/>
</svg>
