<?xml version="1.0" encoding="utf-8"?>
<!-- Generator: Adobe Illustrator 22.0.0, SVG Export Plug-In . SVG Version: 6.00 Build 0)  -->
<svg version="1.1" id="Capa_1" xmlns="http://www.w3.org/2000/svg" xmlns:xlink="http://www.w3.org/1999/xlink" x="0px" y="0px"
	 viewBox="0 0 29.7 29.7" width="29" height="29" style="enable-background:new 0 0 29.7 29.7;" xml:space="preserve">
<style type="text/css">
	.st0{fill:#F05769;}
</style>
<path class="st0" d="M26.5,9.5c-0.2-1-1.1-5-5-7.4c-2.6-1.6-5.2-1.8-6.3-1.7l0,0c-1.1,0-3.7,0.1-6.3,1.7C5.1,4.5,4.2,8.6,4,9.5
	c-0.7,3.9,0.9,7,2.5,10.2c1.3,2.4,3.8,6.4,8.7,10c4.9-3.6,7.4-7.6,8.7-10C25.6,16.6,27.2,13.4,26.5,9.5z M19,12.1
	c-0.4,2.1-2.5,3.4-4.5,2.9c-2.1-0.4-3.4-2.5-2.9-4.5C12,8.5,14,7.1,16.1,7.6C18.1,8,19.4,10.1,19,12.1z"/>
</svg>