<svg width="42" height="42" viewBox="0 0 42 42" fill="none" xmlns="http://www.w3.org/2000/svg">
<path d="M36.7508 34.1263C36.7508 35.5752 35.5749 36.7512 34.1259 36.7512H7.87595C6.42695 36.7512 5.25096 35.5752 5.25096 34.1263V7.87634C5.25096 6.42734 6.42695 5.25134 7.87595 5.25134H15.7509L24.5 0.00136185H5.25096C2.35034 0.00136185 0.000976562 2.35073 0.000976562 5.25134V36.7512C0.000976562 39.6519 2.35034 42.0012 5.25096 42.0012H36.7508C39.6515 42.0012 42.0008 39.6519 42.0008 36.7512V15.0951L36.7508 19.0326V34.1263ZM28.8339 5.14634C28.8077 5.41147 28.7945 5.36684 28.7893 5.13059C27.4952 5.12009 11.1704 6.41684 10.4904 26.4902C10.6847 27.4956 14.0106 13.2366 28.8706 10.2888C28.8759 10.5014 28.8759 15.7514 28.8759 15.7514L42.0008 7.87641L28.8759 0.00143476C28.9179 -0.0248152 28.7761 4.17517 28.7892 5.13067C28.8864 5.13322 28.9205 5.13847 28.8339 5.14634ZM10.5351 25.5005C10.4957 25.9573 10.4931 26.2223 10.4931 26.2223C10.4957 25.9678 10.5298 25.7499 10.5351 25.5005Z" fill="white"/>
</svg>
