<svg width="131px" height="131px" viewBox="0 0 131 115" version="1.1" xmlns="http://www.w3.org/2000/svg" xmlns:xlink="http://www.w3.org/1999/xlink">
    <defs>
        <polygon id="path-1" points="0 0.2705 130.7298 0.2705 130.7298 115.0155 0 115.0155"></polygon>
    </defs>
    <g id="Page-1" stroke="none" stroke-width="1" fill="none" fill-rule="evenodd">
        <g id="Add-Product-Walk-throw" transform="translate(-142.000000, -278.000000)">
            <g id="Group-7" transform="translate(142.000000, 277.000000)">
                <g id="Group-6" transform="translate(0.000000, 0.730000)">
                    <mask id="mask-2" fill="white">
                        <use xlink:href="#path-1"></use>
                    </mask>
                    <g id="Clip-5"></g>
                    <path d="M84.4318,56.2655 C83.7448,58.8375 82.8478,59.5295 82.6318,60.1315 C80.4538,70.3585 73.2798,79.0915 65.5608,79.0915 C57.8418,79.0915 50.2678,70.3585 48.0898,60.1315 C47.8748,59.5295 46.9778,58.8375 46.2888,56.2655 C45.5298,53.6975 45.3588,51.2295 46.0528,50.4405 L46.2068,50.2745 C47.2338,49.3345 47.1528,49.3885 47.1528,49.3885 C47.1528,49.3885 45.3628,40.3525 46.7978,36.0785 C49.1778,28.8765 57.5628,25.0755 59.1658,24.4575 C61.6278,23.3835 63.7528,23.8135 63.7528,23.8135 C63.8578,23.8145 65.5008,24.1425 65.5008,24.1475 C68.2018,24.6805 81.6688,29.2535 83.9238,36.0785 C85.3598,40.3525 83.5688,49.3885 83.5688,49.3885 C83.5688,49.3885 83.4888,49.3345 84.5158,50.2745 L84.6678,50.4405 C85.3838,51.0605 85.1908,53.6975 84.4318,56.2655 M65.3648,0.2705 C29.2648,0.2705 -0.0002,29.5355 -0.0002,65.6355 C-0.0002,85.3605 8.7498,103.0305 22.5648,115.0155 C22.0058,106.4955 22.8458,90.7425 35.9838,85.8345 C48.3458,81.7965 53.4838,76.7755 53.4838,76.7755 L53.8978,77.1695 C57.5698,80.6245 61.6298,82.6565 65.3288,82.6565 L65.6778,82.6565 C69.3768,82.6565 73.4368,80.6245 77.1078,77.1695 L77.5218,76.7755 C77.5218,76.7755 82.6608,81.7965 95.0228,85.8345 C108.0708,90.7675 109.0088,106.1955 108.4708,114.7505 C122.1098,102.7705 130.7298,85.2145 130.7298,65.6355 C130.7298,29.5355 101.4648,0.2705 65.3648,0.2705" id="Fill-4" fill="#DADBDD" mask="url(#mask-2)"></path>
                </g>
            </g>
        </g>
    </g>
</svg>