<svg width="71" height="71" viewBox="0 0 71 71" fill="none" xmlns="http://www.w3.org/2000/svg">
<circle cx="35" cy="35" r="34" fill="black" fill-opacity="0.35"/>
<path d="M28.3999 51.0099V19.9901L51.1495 35.5L28.3999 51.0099Z" fill="white" fill-opacity="0.85"/>
<path d="M35.5 0C15.9253 0 0 15.9253 0 35.5C0 55.0747 15.9253 71 35.5 71C55.0747 71 71 55.0747 71 35.5C71 15.9253 55.0747 0 35.5 0ZM35.5 68.6333C17.2305 68.6333 2.36667 53.7695 2.36667 35.5C2.36667 17.2305 17.2305 2.36667 35.5 2.36667C53.7695 2.36667 68.6333 17.2305 68.6333 35.5C68.6333 53.7695 53.7695 68.6333 35.5 68.6333Z" fill="white"/>
</svg>
