<svg width="22" height="16" viewBox="0 0 22 16" fill="none" xmlns="http://www.w3.org/2000/svg">
<path fill-rule="evenodd" clip-rule="evenodd" d="M8 8.5956V14.0397C8 14.3158 7.77614 14.5397 7.5 14.5397C7.35718 14.5397 7.22118 14.4786 7.1263 14.3718L4.44444 11.3548H1.53833C1.00342 11.3548 0.809448 11.2991 0.613893 11.1945C0.418337 11.0899 0.264864 10.9364 0.16028 10.7409C0.0556954 10.5453 0 10.3513 0 9.81643V6.8931C0 6.35819 0.0556954 6.16421 0.16028 5.96866C0.264864 5.7731 0.418337 5.61963 0.613893 5.51505C0.809448 5.41046 1.00342 5.35477 1.53833 5.35477H2.59861L8 8.5956ZM8 4.51393L6.1686 3.41509L7.1263 2.33768C7.30975 2.13129 7.62579 2.1127 7.83218 2.29616C7.93893 2.39104 8 2.52705 8 2.66987V4.51393ZM17.0514 14.0264L17.9271 14.5519C17.516 15.0072 17.061 15.4272 16.5661 15.8054C16.3466 15.9731 16.0328 15.9311 15.8652 15.7117C15.6975 15.4923 15.7395 15.1785 15.9589 15.0108C16.3519 14.7106 16.7168 14.3811 17.0514 14.0264ZM18.9119 11.0611C19.2952 10.0551 19.5 8.97196 19.5 7.85477C19.5 5.11968 18.2731 2.58654 16.1969 0.886911C15.9832 0.711992 15.9518 0.396972 16.1267 0.183295C16.3016 -0.0303814 16.6166 -0.0618007 16.8303 0.113119C19.1361 2.00071 20.5 4.81661 20.5 7.85477C20.5 9.15738 20.2492 10.4186 19.7816 11.5829L18.9119 11.0611ZM13.995 12.1926L14.8587 12.7108C14.4619 13.2296 13.9998 13.7022 13.4798 14.1162C13.2638 14.2883 12.9492 14.2526 12.7772 14.0366C12.6052 13.8206 12.6409 13.506 12.8569 13.334C13.2823 12.9952 13.6635 12.6118 13.995 12.1926ZM15.4128 8.9616C15.4704 8.59934 15.5 8.22951 15.5 7.85477C15.5 5.81377 14.6223 3.9159 13.1186 2.59452C12.9111 2.41223 12.8907 2.09631 13.073 1.88888C13.2553 1.68145 13.5712 1.66106 13.7787 1.84334C15.4962 3.35263 16.5 5.52308 16.5 7.85477C16.5 8.41872 16.4412 8.97305 16.328 9.51072L15.4128 8.9616ZM10.8571 10.3099L11.7149 10.8245C11.3698 11.4297 10.9187 11.975 10.3773 12.4338C10.1666 12.6124 9.85113 12.5863 9.67259 12.3757C9.49405 12.165 9.52009 11.8495 9.73075 11.671C10.1882 11.2833 10.5681 10.822 10.8571 10.3099ZM11.3152 6.50304C11.0893 5.69609 10.6628 4.95865 10.0705 4.35453C9.87716 4.15735 9.88028 3.84078 10.0775 3.64746C10.2746 3.45413 10.5912 3.45726 10.7845 3.65443C11.7237 4.61232 12.3161 5.85165 12.4637 7.19216L11.3152 6.50304ZM0.614128 2.99789C0.258943 2.78477 0.143769 2.32408 0.35688 1.96889C0.569991 1.61371 1.03069 1.49853 1.38587 1.71165L21.3859 13.7116C21.7411 13.9248 21.8562 14.3855 21.6431 14.7406C21.43 15.0958 20.9693 15.211 20.6141 14.9979L0.614128 2.99789Z" fill="white"/>
</svg>
