<svg width="19" height="13" viewBox="0 0 19 13" fill="none" xmlns="http://www.w3.org/2000/svg">
<path d="M9.5 0C5.18182 0 1.46818 2.68667 0 6.5C1.46818 10.3133 5.18182 13 9.5 13C13.8182 13 17.5318 10.3133 19 6.5C17.5318 2.68667 13.8182 0 9.5 0ZM9.5 10.8333C7.08182 10.8333 5.18182 8.92667 5.18182 6.5C5.18182 4.07333 7.08182 2.16667 9.5 2.16667C11.9182 2.16667 13.8182 4.07333 13.8182 6.5C13.8182 8.92667 11.9182 10.8333 9.5 10.8333ZM9.5 3.9C8.03182 3.9 6.90909 5.02667 6.90909 6.5C6.90909 7.97333 8.03182 9.1 9.5 9.1C10.9682 9.1 12.0909 7.97333 12.0909 6.5C12.0909 5.02667 10.9682 3.9 9.5 3.9Z" fill="white"/>
</svg>
