<?xml version="1.0" encoding="utf-8"?>
<!-- Generator: Adobe Illustrator 19.2.0, SVG Export Plug-In . SVG Version: 6.00 Build 0)  -->
<svg version="1.1" id="Capa_1" xmlns="http://www.w3.org/2000/svg" xmlns:xlink="http://www.w3.org/1999/xlink" x="0px" y="0px"
	 width="512px" height="512px" viewBox="0 0 512 512" style="enable-background:new 0 0 512 512;" xml:space="preserve">
<style type="text/css">
	.st0{fill:#D8D8D8;}
</style>
<g>
	<path class="st0" d="M259.8,177.7c-30,0-54.5,24.4-54.5,54.5s24.4,54.5,54.5,54.5c30,0,54.5-24.4,54.5-54.5
		S289.9,177.7,259.8,177.7z M283.9,232.1c0,13.2-10.8,24-24,24c-13.2,0-24-10.8-24-24c0-13.2,10.8-24,24-24
		C273.1,208.1,283.9,218.9,283.9,232.1z"/>
	<path class="st0" d="M465.6,60L130.9,22C117.1,20,103.1,24,92.4,33C81.9,41.2,75,53.6,73.6,66.9l-5.8,47.7H51.4
		c-27.7,0-50.2,24.2-50.2,53.8l0,250.7c-0.3,13.2,4.5,25.8,13.6,35.4c9.1,9.6,21.4,15.1,34.6,15.4c0.4,0,0.9,0,1.3,0
		c0.2,0,0.4,0,0.6,0H388c29.5,0,54.5-23.3,54.5-50.8v-7.4c7.9-1.8,15.3-5.1,22-9.8l0.2-0.2c10.6-8.9,17.2-21.3,18.8-35l28.2-248.9
		C514.7,89.3,494,63.4,465.6,60z M412,269.7l-132.2,77c-10.4,6.2-23.5,5-32.7-2.7l-67.5-59.5c-10.8-9.3-24.1-14-37.5-14
		c-12,0-24,3.8-34.2,11.4l-76.2,55.4V168.4c0-11.3,7.5-23.4,19.7-23.4h336.5c12.9,0.6,23.2,10.7,24.1,23.5V269.7z M31.7,419.3l0-44
		l93.9-69c10.3-7.9,24.7-7.2,34.3,1.7l66.9,58.9c10.6,8.9,24.1,14,38,14.2c10.9,0.1,21.6-2.8,30.9-8.4L412,305.3v113.8h0
		c0,9.8-9.7,20.3-24,20.3l-336.7,0c-5.1,0.2-10-1.7-13.7-5.2c-3.7-3.5-5.8-8.2-6-13.3C31.6,420.4,31.6,419.8,31.7,419.3z M388,114.5
		H98.2l5.1-44.4c1.1-5.4,3.9-10.4,8.1-14.1c4.8-3.3,10.6-4.8,16.2-4.3l334.2,38.6c11.8,1.1,20.6,11.7,19.4,23.5L452.5,363l0,0.2
		l0,0.2c0,5.5-2.5,10.8-6.8,14.2l-0.3,0.2c-0.6,0.6-1.8,1.3-2.9,1.8V168.4l0-0.1C441.4,138.8,417.5,115.2,388,114.5z M439.5,384.8
		L439.5,384.8C439.5,384.8,439.5,384.8,439.5,384.8L439.5,384.8z"/>
</g>
</svg>
