<?xml version="1.0" encoding="utf-8"?>
<!-- Generator: Adobe Illustrator 19.2.0, SVG Export Plug-In . SVG Version: 6.00 Build 0)  -->
<svg version="1.1" id="Capa_1" xmlns="http://www.w3.org/2000/svg" xmlns:xlink="http://www.w3.org/1999/xlink" x="0px" y="0px"
	 width="512px" height="512px" viewBox="0 0 512 512" style="enable-background:new 0 0 512 512;" xml:space="preserve">
<style type="text/css">
	.st0{fill:#D8D8D8;}
</style>
<g>
	<path class="st0" d="M164.7,392.6c-30.9,0-56.1,25.2-56.1,56.1s25.2,56.1,56.1,56.1s56.1-25.2,56.1-56.1c0-15-5.8-29.1-16.4-39.7
		S179.7,392.6,164.7,392.6z M190.5,448.7c0,6.9-2.7,13.4-7.6,18.2c-4.9,4.9-11.4,7.6-18.2,7.6c-14.2,0-25.8-11.6-25.8-25.8
		c0-14.2,11.6-25.8,25.8-25.8C179,422.9,190.5,434.5,190.5,448.7z"/>
	<path class="st0" d="M387,392.6c-30.9,0-56.1,25.2-56.1,56.1s25.2,56.1,56.1,56.1s56.1-25.2,56.1-56.1S417.9,392.6,387,392.6z
		 M412.8,448.7c0,6.9-2.7,13.4-7.6,18.2c-4.9,4.9-11.4,7.6-18.2,7.6c-14.2,0-25.8-11.6-25.8-25.8c0-14.2,11.6-25.8,25.8-25.8
		C401.2,422.9,412.8,434.5,412.8,448.7z"/>
	<path class="st0" d="M508.4,86.8L508.4,86.8c-3.1-3.4-7.2-5.4-11.6-5.9l-0.1,0l-378.5-5.2l-9.8-29.9C100.4,22.9,78.9,7.4,54.8,7.2
		H15.6C7.2,7.2,0.4,14,0.4,22.3s6.8,15.1,15.1,15.1l39.1,0c11.2,0.2,21.2,7.5,24.9,18.1l73.9,222.8l-5.3,12.2l-0.1,0.1
		c-6.9,17.8-4.8,38,5.6,54c10.3,15.8,27.8,25.6,46.7,26.1l227.6,0c8.4,0,15.1-6.8,15.1-15.1c0-8.4-6.8-15.1-15.1-15.1l-227.5,0
		c-8.9-0.2-17-4.9-21.7-12.4c-4.7-7.5-5.7-16.6-2.6-25l3.8-8.6l244.3-25.5c28.4-3.1,52-23.9,58.5-51.8l28-117.4
		C512.4,95.4,511.5,90.4,508.4,86.8z M477.4,111.1l-24.1,99.3l0,0.1c-3.5,15.7-16.6,27-32.7,28.3L180,263.7L128,106L477.4,111.1z"/>
</g>
</svg>
