<svg id="Capa_1" data-name="Capa 1" xmlns="http://www.w3.org/2000/svg" viewBox="0 0 395.15 496.13"><defs><style>.cls-1{fill:#d8d8d8;}</style></defs><title>wechat</title><path class="cls-1" d="M449.26,145.44L315.52,12.28a14.06,14.06,0,0,0-10.23-4.34H123.53a65.13,65.13,0,0,0-65.11,65V439.06a65.08,65.08,0,0,0,65,65H388.57a65.08,65.08,0,0,0,65-65V155.65A14.39,14.39,0,0,0,449.26,145.44ZM325.48,169.5h99.05V439.15a36,36,0,0,1-36,36h-265a36,36,0,0,1-36-36V72.94a36,36,0,0,1,36-36H292V136A33.5,33.5,0,0,0,325.48,169.5Zm-4.42-32.25V58.62l82.46,81.84h-78l-0.24,0a3.71,3.71,0,0,1-2.76-.77A3.79,3.79,0,0,1,321.06,137.25Z" transform="translate(-58.42 -7.93)"/><path class="cls-1" d="M369.24,393.47c17.69-12.5,28.08-30.58,28.08-49.53,0-36.54-37.12-66.26-82.8-66.26s-82.8,29.72-82.8,66.26c0,40.49,45,73.09,97.8,65.11l39.72,17a9.93,9.93,0,0,0,3.27.67,8.3,8.3,0,0,0,6.06-2.6,8,8,0,0,0,1.35-9.33ZM352.5,381.55a7.66,7.66,0,0,0-3.08,10.1l3.56,7.21-19.62-8.46a8.21,8.21,0,0,0-3-.58,6.35,6.35,0,0,0-1.35.1,74.12,74.12,0,0,1-13.56,1.25c-33.85,0-61.36-20.68-61.36-46s27.5-46,61.36-46,61.36,20.68,61.36,46C376.93,359.43,368.08,372.7,352.5,381.55Z" transform="translate(-58.42 -7.93)"/><path class="cls-1" d="M200.34,239.8h-0.29a14.76,14.76,0,0,0-14.71,14.91A15,15,0,1,0,200.34,239.8Z" transform="translate(-58.42 -7.93)"/><path class="cls-1" d="M257.82,239.8h-0.29a15,15,0,0,0-15.19,14.91c0,8.17,7,14.91,15.48,14.91A14.91,14.91,0,1,0,257.82,239.8Z" transform="translate(-58.42 -7.93)"/><path class="cls-1" d="M294.61,318.65h-0.29a13,13,0,0,0-13,13.18A13.34,13.34,0,0,0,294.61,345,13.18,13.18,0,1,0,294.61,318.65Z" transform="translate(-58.42 -7.93)"/><path class="cls-1" d="M337.55,318.65h-0.29a13,13,0,0,0-13,13.18A13.34,13.34,0,0,0,337.55,345,13.18,13.18,0,1,0,337.55,318.65Z" transform="translate(-58.42 -7.93)"/><path class="cls-1" d="M239.89,326.92c-3.08.29-6.25,0.48-9.42,0.48a97.82,97.82,0,0,1-17.21-1.54,9.33,9.33,0,0,0-1.63-.1,10.55,10.55,0,0,0-3.85.77l-25,10.77,4.52-9.14a9.9,9.9,0,0,0-3.85-12.89c-19.91-11.44-31.25-28.47-31.25-46.64,0-32.41,35.1-58.66,78.28-58.66s78.28,26.35,78.28,58.66A44.69,44.69,0,0,1,306,284.23c1.83,0,3.56.1,5.39,0.19,7.89-2.31,16.06-2,23.18,2.6a68.81,68.81,0,0,0,3-19.91c0-46.64-47.41-84.53-105.59-84.53s-105.59,37.89-105.59,84.53c0,24.14,13.18,47.22,35.77,63.18l-13.75,27.22a10.51,10.51,0,0,0,1.73,11.92,10.35,10.35,0,0,0,7.69,3.37,10.64,10.64,0,0,0,4.14-.87l50.68-21.73a131.33,131.33,0,0,0,29.91,1.15C240.56,343.37,238.74,335.1,239.89,326.92Z" transform="translate(-58.42 -7.93)"/></svg>